<?xml version="1.0" encoding="utf-8" standalone="no"?>
<!DOCTYPE svg PUBLIC "-//W3C//DTD SVG 1.1//EN"
  "http://www.w3.org/Graphics/SVG/1.1/DTD/svg11.dtd">
<svg height="345.6pt" version="1.1" viewBox="0 0 460.8 345.6" width="460.8pt" xmlns="http://www.w3.org/2000/svg" xmlns:xlink="http://www.w3.org/1999/xlink">
 <metadata>
  <rdf:RDF xmlns:cc="http://creativecommons.org/ns#" xmlns:dc="http://purl.org/dc/elements/1.1/" xmlns:rdf="http://www.w3.org/1999/02/22-rdf-syntax-ns#">
   <cc:Work>
    <dc:type rdf:resource="http://purl.org/dc/dcmitype/StillImage"/>
    <dc:date>2021-10-03T02:36:28.527463</dc:date>
    <dc:format>image/svg+xml</dc:format>
    <dc:creator>
     <cc:Agent>
      <dc:title>Matplotlib v3.4.3, https://matplotlib.org/</dc:title>
     </cc:Agent>
    </dc:creator>
   </cc:Work>
  </rdf:RDF>
 </metadata>
 <defs>
  <style type="text/css">*{stroke-linecap:butt;stroke-linejoin:round;}</style>
 </defs>
 <g id="figure_1">
  <g id="patch_1">
   <path d="M 0 345.6 
L 460.8 345.6 
L 460.8 0 
L 0 0 
z
" style="fill:#ffffff;"/>
  </g>
  <g id="axes_1">
   <g id="patch_2">
    <path d="M 57.6 307.584 
L 414.72 307.584 
L 414.72 41.472 
L 57.6 41.472 
z
" style="fill:#ffffff;"/>
   </g>
   <g id="matplotlib.axis_1">
    <g id="xtick_1">
     <g id="line2d_1">
      <defs>
       <path d="M 0 0 
L 0 3.5 
" id="md450f8557f" style="stroke:#000000;stroke-width:0.8;"/>
      </defs>
      <g>
       <use style="stroke:#000000;stroke-width:0.8;" x="57.6" xlink:href="#md450f8557f" y="307.584"/>
      </g>
     </g>
     <g id="text_1">
      <!-- 0 -->
      <g transform="translate(54.41875 322.182437)scale(0.1 -0.1)">
       <defs>
        <path d="M 2034 4250 
Q 1547 4250 1301 3770 
Q 1056 3291 1056 2328 
Q 1056 1369 1301 889 
Q 1547 409 2034 409 
Q 2525 409 2770 889 
Q 3016 1369 3016 2328 
Q 3016 3291 2770 3770 
Q 2525 4250 2034 4250 
z
M 2034 4750 
Q 2819 4750 3233 4129 
Q 3647 3509 3647 2328 
Q 3647 1150 3233 529 
Q 2819 -91 2034 -91 
Q 1250 -91 836 529 
Q 422 1150 422 2328 
Q 422 3509 836 4129 
Q 1250 4750 2034 4750 
z
" id="DejaVuSans-30" transform="scale(0.015625)"/>
       </defs>
       <use xlink:href="#DejaVuSans-30"/>
      </g>
     </g>
    </g>
    <g id="xtick_2">
     <g id="line2d_2">
      <g>
       <use style="stroke:#000000;stroke-width:0.8;" x="98.933333" xlink:href="#md450f8557f" y="307.584"/>
      </g>
     </g>
     <g id="text_2">
      <!-- 25 -->
      <g transform="translate(92.570833 322.182437)scale(0.1 -0.1)">
       <defs>
        <path d="M 1228 531 
L 3431 531 
L 3431 0 
L 469 0 
L 469 531 
Q 828 903 1448 1529 
Q 2069 2156 2228 2338 
Q 2531 2678 2651 2914 
Q 2772 3150 2772 3378 
Q 2772 3750 2511 3984 
Q 2250 4219 1831 4219 
Q 1534 4219 1204 4116 
Q 875 4013 500 3803 
L 500 4441 
Q 881 4594 1212 4672 
Q 1544 4750 1819 4750 
Q 2544 4750 2975 4387 
Q 3406 4025 3406 3419 
Q 3406 3131 3298 2873 
Q 3191 2616 2906 2266 
Q 2828 2175 2409 1742 
Q 1991 1309 1228 531 
z
" id="DejaVuSans-32" transform="scale(0.015625)"/>
        <path d="M 691 4666 
L 3169 4666 
L 3169 4134 
L 1269 4134 
L 1269 2991 
Q 1406 3038 1543 3061 
Q 1681 3084 1819 3084 
Q 2600 3084 3056 2656 
Q 3513 2228 3513 1497 
Q 3513 744 3044 326 
Q 2575 -91 1722 -91 
Q 1428 -91 1123 -41 
Q 819 9 494 109 
L 494 744 
Q 775 591 1075 516 
Q 1375 441 1709 441 
Q 2250 441 2565 725 
Q 2881 1009 2881 1497 
Q 2881 1984 2565 2268 
Q 2250 2553 1709 2553 
Q 1456 2553 1204 2497 
Q 953 2441 691 2322 
L 691 4666 
z
" id="DejaVuSans-35" transform="scale(0.015625)"/>
       </defs>
       <use xlink:href="#DejaVuSans-32"/>
       <use x="63.623047" xlink:href="#DejaVuSans-35"/>
      </g>
     </g>
    </g>
    <g id="xtick_3">
     <g id="line2d_3">
      <g>
       <use style="stroke:#000000;stroke-width:0.8;" x="140.266667" xlink:href="#md450f8557f" y="307.584"/>
      </g>
     </g>
     <g id="text_3">
      <!-- 50 -->
      <g transform="translate(133.904167 322.182437)scale(0.1 -0.1)">
       <use xlink:href="#DejaVuSans-35"/>
       <use x="63.623047" xlink:href="#DejaVuSans-30"/>
      </g>
     </g>
    </g>
    <g id="xtick_4">
     <g id="line2d_4">
      <g>
       <use style="stroke:#000000;stroke-width:0.8;" x="181.6" xlink:href="#md450f8557f" y="307.584"/>
      </g>
     </g>
     <g id="text_4">
      <!-- 75 -->
      <g transform="translate(175.2375 322.182437)scale(0.1 -0.1)">
       <defs>
        <path d="M 525 4666 
L 3525 4666 
L 3525 4397 
L 1831 0 
L 1172 0 
L 2766 4134 
L 525 4134 
L 525 4666 
z
" id="DejaVuSans-37" transform="scale(0.015625)"/>
       </defs>
       <use xlink:href="#DejaVuSans-37"/>
       <use x="63.623047" xlink:href="#DejaVuSans-35"/>
      </g>
     </g>
    </g>
    <g id="xtick_5">
     <g id="line2d_5">
      <g>
       <use style="stroke:#000000;stroke-width:0.8;" x="222.933333" xlink:href="#md450f8557f" y="307.584"/>
      </g>
     </g>
     <g id="text_5">
      <!-- 100 -->
      <g transform="translate(213.389583 322.182437)scale(0.1 -0.1)">
       <defs>
        <path d="M 794 531 
L 1825 531 
L 1825 4091 
L 703 3866 
L 703 4441 
L 1819 4666 
L 2450 4666 
L 2450 531 
L 3481 531 
L 3481 0 
L 794 0 
L 794 531 
z
" id="DejaVuSans-31" transform="scale(0.015625)"/>
       </defs>
       <use xlink:href="#DejaVuSans-31"/>
       <use x="63.623047" xlink:href="#DejaVuSans-30"/>
       <use x="127.246094" xlink:href="#DejaVuSans-30"/>
      </g>
     </g>
    </g>
    <g id="xtick_6">
     <g id="line2d_6">
      <g>
       <use style="stroke:#000000;stroke-width:0.8;" x="264.266667" xlink:href="#md450f8557f" y="307.584"/>
      </g>
     </g>
     <g id="text_6">
      <!-- 125 -->
      <g transform="translate(254.722917 322.182437)scale(0.1 -0.1)">
       <use xlink:href="#DejaVuSans-31"/>
       <use x="63.623047" xlink:href="#DejaVuSans-32"/>
       <use x="127.246094" xlink:href="#DejaVuSans-35"/>
      </g>
     </g>
    </g>
    <g id="xtick_7">
     <g id="line2d_7">
      <g>
       <use style="stroke:#000000;stroke-width:0.8;" x="305.6" xlink:href="#md450f8557f" y="307.584"/>
      </g>
     </g>
     <g id="text_7">
      <!-- 150 -->
      <g transform="translate(296.05625 322.182437)scale(0.1 -0.1)">
       <use xlink:href="#DejaVuSans-31"/>
       <use x="63.623047" xlink:href="#DejaVuSans-35"/>
       <use x="127.246094" xlink:href="#DejaVuSans-30"/>
      </g>
     </g>
    </g>
    <g id="xtick_8">
     <g id="line2d_8">
      <g>
       <use style="stroke:#000000;stroke-width:0.8;" x="346.933333" xlink:href="#md450f8557f" y="307.584"/>
      </g>
     </g>
     <g id="text_8">
      <!-- 175 -->
      <g transform="translate(337.389583 322.182437)scale(0.1 -0.1)">
       <use xlink:href="#DejaVuSans-31"/>
       <use x="63.623047" xlink:href="#DejaVuSans-37"/>
       <use x="127.246094" xlink:href="#DejaVuSans-35"/>
      </g>
     </g>
    </g>
    <g id="xtick_9">
     <g id="line2d_9">
      <g>
       <use style="stroke:#000000;stroke-width:0.8;" x="388.266667" xlink:href="#md450f8557f" y="307.584"/>
      </g>
     </g>
     <g id="text_9">
      <!-- 200 -->
      <g transform="translate(378.722917 322.182437)scale(0.1 -0.1)">
       <use xlink:href="#DejaVuSans-32"/>
       <use x="63.623047" xlink:href="#DejaVuSans-30"/>
       <use x="127.246094" xlink:href="#DejaVuSans-30"/>
      </g>
     </g>
    </g>
    <g id="text_10">
     <!-- sentence -->
     <g transform="translate(213.27875 335.860562)scale(0.1 -0.1)">
      <defs>
       <path d="M 2834 3397 
L 2834 2853 
Q 2591 2978 2328 3040 
Q 2066 3103 1784 3103 
Q 1356 3103 1142 2972 
Q 928 2841 928 2578 
Q 928 2378 1081 2264 
Q 1234 2150 1697 2047 
L 1894 2003 
Q 2506 1872 2764 1633 
Q 3022 1394 3022 966 
Q 3022 478 2636 193 
Q 2250 -91 1575 -91 
Q 1294 -91 989 -36 
Q 684 19 347 128 
L 347 722 
Q 666 556 975 473 
Q 1284 391 1588 391 
Q 1994 391 2212 530 
Q 2431 669 2431 922 
Q 2431 1156 2273 1281 
Q 2116 1406 1581 1522 
L 1381 1569 
Q 847 1681 609 1914 
Q 372 2147 372 2553 
Q 372 3047 722 3315 
Q 1072 3584 1716 3584 
Q 2034 3584 2315 3537 
Q 2597 3491 2834 3397 
z
" id="DejaVuSans-73" transform="scale(0.015625)"/>
       <path d="M 3597 1894 
L 3597 1613 
L 953 1613 
Q 991 1019 1311 708 
Q 1631 397 2203 397 
Q 2534 397 2845 478 
Q 3156 559 3463 722 
L 3463 178 
Q 3153 47 2828 -22 
Q 2503 -91 2169 -91 
Q 1331 -91 842 396 
Q 353 884 353 1716 
Q 353 2575 817 3079 
Q 1281 3584 2069 3584 
Q 2775 3584 3186 3129 
Q 3597 2675 3597 1894 
z
M 3022 2063 
Q 3016 2534 2758 2815 
Q 2500 3097 2075 3097 
Q 1594 3097 1305 2825 
Q 1016 2553 972 2059 
L 3022 2063 
z
" id="DejaVuSans-65" transform="scale(0.015625)"/>
       <path d="M 3513 2113 
L 3513 0 
L 2938 0 
L 2938 2094 
Q 2938 2591 2744 2837 
Q 2550 3084 2163 3084 
Q 1697 3084 1428 2787 
Q 1159 2491 1159 1978 
L 1159 0 
L 581 0 
L 581 3500 
L 1159 3500 
L 1159 2956 
Q 1366 3272 1645 3428 
Q 1925 3584 2291 3584 
Q 2894 3584 3203 3211 
Q 3513 2838 3513 2113 
z
" id="DejaVuSans-6e" transform="scale(0.015625)"/>
       <path d="M 1172 4494 
L 1172 3500 
L 2356 3500 
L 2356 3053 
L 1172 3053 
L 1172 1153 
Q 1172 725 1289 603 
Q 1406 481 1766 481 
L 2356 481 
L 2356 0 
L 1766 0 
Q 1100 0 847 248 
Q 594 497 594 1153 
L 594 3053 
L 172 3053 
L 172 3500 
L 594 3500 
L 594 4494 
L 1172 4494 
z
" id="DejaVuSans-74" transform="scale(0.015625)"/>
       <path d="M 3122 3366 
L 3122 2828 
Q 2878 2963 2633 3030 
Q 2388 3097 2138 3097 
Q 1578 3097 1268 2742 
Q 959 2388 959 1747 
Q 959 1106 1268 751 
Q 1578 397 2138 397 
Q 2388 397 2633 464 
Q 2878 531 3122 666 
L 3122 134 
Q 2881 22 2623 -34 
Q 2366 -91 2075 -91 
Q 1284 -91 818 406 
Q 353 903 353 1747 
Q 353 2603 823 3093 
Q 1294 3584 2113 3584 
Q 2378 3584 2631 3529 
Q 2884 3475 3122 3366 
z
" id="DejaVuSans-63" transform="scale(0.015625)"/>
      </defs>
      <use xlink:href="#DejaVuSans-73"/>
      <use x="52.099609" xlink:href="#DejaVuSans-65"/>
      <use x="113.623047" xlink:href="#DejaVuSans-6e"/>
      <use x="177.001953" xlink:href="#DejaVuSans-74"/>
      <use x="216.210938" xlink:href="#DejaVuSans-65"/>
      <use x="277.734375" xlink:href="#DejaVuSans-6e"/>
      <use x="341.113281" xlink:href="#DejaVuSans-63"/>
      <use x="396.09375" xlink:href="#DejaVuSans-65"/>
     </g>
    </g>
   </g>
   <g id="matplotlib.axis_2">
    <g id="ytick_1">
     <g id="line2d_10">
      <defs>
       <path d="M 0 0 
L -3.5 0 
" id="m09da68a8b4" style="stroke:#000000;stroke-width:0.8;"/>
      </defs>
      <g>
       <use style="stroke:#000000;stroke-width:0.8;" x="57.6" xlink:href="#m09da68a8b4" y="307.584"/>
      </g>
     </g>
     <g id="text_11">
      <!-- 0 -->
      <g transform="translate(44.2375 311.383219)scale(0.1 -0.1)">
       <use xlink:href="#DejaVuSans-30"/>
      </g>
     </g>
    </g>
    <g id="ytick_2">
     <g id="line2d_11">
      <g>
       <use style="stroke:#000000;stroke-width:0.8;" x="57.6" xlink:href="#m09da68a8b4" y="254.3616"/>
      </g>
     </g>
     <g id="text_12">
      <!-- 20 -->
      <g transform="translate(37.875 258.160819)scale(0.1 -0.1)">
       <use xlink:href="#DejaVuSans-32"/>
       <use x="63.623047" xlink:href="#DejaVuSans-30"/>
      </g>
     </g>
    </g>
    <g id="ytick_3">
     <g id="line2d_12">
      <g>
       <use style="stroke:#000000;stroke-width:0.8;" x="57.6" xlink:href="#m09da68a8b4" y="201.1392"/>
      </g>
     </g>
     <g id="text_13">
      <!-- 40 -->
      <g transform="translate(37.875 204.938419)scale(0.1 -0.1)">
       <defs>
        <path d="M 2419 4116 
L 825 1625 
L 2419 1625 
L 2419 4116 
z
M 2253 4666 
L 3047 4666 
L 3047 1625 
L 3713 1625 
L 3713 1100 
L 3047 1100 
L 3047 0 
L 2419 0 
L 2419 1100 
L 313 1100 
L 313 1709 
L 2253 4666 
z
" id="DejaVuSans-34" transform="scale(0.015625)"/>
       </defs>
       <use xlink:href="#DejaVuSans-34"/>
       <use x="63.623047" xlink:href="#DejaVuSans-30"/>
      </g>
     </g>
    </g>
    <g id="ytick_4">
     <g id="line2d_13">
      <g>
       <use style="stroke:#000000;stroke-width:0.8;" x="57.6" xlink:href="#m09da68a8b4" y="147.9168"/>
      </g>
     </g>
     <g id="text_14">
      <!-- 60 -->
      <g transform="translate(37.875 151.716019)scale(0.1 -0.1)">
       <defs>
        <path d="M 2113 2584 
Q 1688 2584 1439 2293 
Q 1191 2003 1191 1497 
Q 1191 994 1439 701 
Q 1688 409 2113 409 
Q 2538 409 2786 701 
Q 3034 994 3034 1497 
Q 3034 2003 2786 2293 
Q 2538 2584 2113 2584 
z
M 3366 4563 
L 3366 3988 
Q 3128 4100 2886 4159 
Q 2644 4219 2406 4219 
Q 1781 4219 1451 3797 
Q 1122 3375 1075 2522 
Q 1259 2794 1537 2939 
Q 1816 3084 2150 3084 
Q 2853 3084 3261 2657 
Q 3669 2231 3669 1497 
Q 3669 778 3244 343 
Q 2819 -91 2113 -91 
Q 1303 -91 875 529 
Q 447 1150 447 2328 
Q 447 3434 972 4092 
Q 1497 4750 2381 4750 
Q 2619 4750 2861 4703 
Q 3103 4656 3366 4563 
z
" id="DejaVuSans-36" transform="scale(0.015625)"/>
       </defs>
       <use xlink:href="#DejaVuSans-36"/>
       <use x="63.623047" xlink:href="#DejaVuSans-30"/>
      </g>
     </g>
    </g>
    <g id="ytick_5">
     <g id="line2d_14">
      <g>
       <use style="stroke:#000000;stroke-width:0.8;" x="57.6" xlink:href="#m09da68a8b4" y="94.6944"/>
      </g>
     </g>
     <g id="text_15">
      <!-- 80 -->
      <g transform="translate(37.875 98.493619)scale(0.1 -0.1)">
       <defs>
        <path d="M 2034 2216 
Q 1584 2216 1326 1975 
Q 1069 1734 1069 1313 
Q 1069 891 1326 650 
Q 1584 409 2034 409 
Q 2484 409 2743 651 
Q 3003 894 3003 1313 
Q 3003 1734 2745 1975 
Q 2488 2216 2034 2216 
z
M 1403 2484 
Q 997 2584 770 2862 
Q 544 3141 544 3541 
Q 544 4100 942 4425 
Q 1341 4750 2034 4750 
Q 2731 4750 3128 4425 
Q 3525 4100 3525 3541 
Q 3525 3141 3298 2862 
Q 3072 2584 2669 2484 
Q 3125 2378 3379 2068 
Q 3634 1759 3634 1313 
Q 3634 634 3220 271 
Q 2806 -91 2034 -91 
Q 1263 -91 848 271 
Q 434 634 434 1313 
Q 434 1759 690 2068 
Q 947 2378 1403 2484 
z
M 1172 3481 
Q 1172 3119 1398 2916 
Q 1625 2713 2034 2713 
Q 2441 2713 2670 2916 
Q 2900 3119 2900 3481 
Q 2900 3844 2670 4047 
Q 2441 4250 2034 4250 
Q 1625 4250 1398 4047 
Q 1172 3844 1172 3481 
z
" id="DejaVuSans-38" transform="scale(0.015625)"/>
       </defs>
       <use xlink:href="#DejaVuSans-38"/>
       <use x="63.623047" xlink:href="#DejaVuSans-30"/>
      </g>
     </g>
    </g>
    <g id="ytick_6">
     <g id="line2d_15">
      <g>
       <use style="stroke:#000000;stroke-width:0.8;" x="57.6" xlink:href="#m09da68a8b4" y="41.472"/>
      </g>
     </g>
     <g id="text_16">
      <!-- 100 -->
      <g transform="translate(31.5125 45.271219)scale(0.1 -0.1)">
       <use xlink:href="#DejaVuSans-31"/>
       <use x="63.623047" xlink:href="#DejaVuSans-30"/>
       <use x="127.246094" xlink:href="#DejaVuSans-30"/>
      </g>
     </g>
    </g>
    <g id="text_17">
     <!-- good score -->
     <g transform="translate(25.432812 202.017063)rotate(-90)scale(0.1 -0.1)">
      <defs>
       <path d="M 2906 1791 
Q 2906 2416 2648 2759 
Q 2391 3103 1925 3103 
Q 1463 3103 1205 2759 
Q 947 2416 947 1791 
Q 947 1169 1205 825 
Q 1463 481 1925 481 
Q 2391 481 2648 825 
Q 2906 1169 2906 1791 
z
M 3481 434 
Q 3481 -459 3084 -895 
Q 2688 -1331 1869 -1331 
Q 1566 -1331 1297 -1286 
Q 1028 -1241 775 -1147 
L 775 -588 
Q 1028 -725 1275 -790 
Q 1522 -856 1778 -856 
Q 2344 -856 2625 -561 
Q 2906 -266 2906 331 
L 2906 616 
Q 2728 306 2450 153 
Q 2172 0 1784 0 
Q 1141 0 747 490 
Q 353 981 353 1791 
Q 353 2603 747 3093 
Q 1141 3584 1784 3584 
Q 2172 3584 2450 3431 
Q 2728 3278 2906 2969 
L 2906 3500 
L 3481 3500 
L 3481 434 
z
" id="DejaVuSans-67" transform="scale(0.015625)"/>
       <path d="M 1959 3097 
Q 1497 3097 1228 2736 
Q 959 2375 959 1747 
Q 959 1119 1226 758 
Q 1494 397 1959 397 
Q 2419 397 2687 759 
Q 2956 1122 2956 1747 
Q 2956 2369 2687 2733 
Q 2419 3097 1959 3097 
z
M 1959 3584 
Q 2709 3584 3137 3096 
Q 3566 2609 3566 1747 
Q 3566 888 3137 398 
Q 2709 -91 1959 -91 
Q 1206 -91 779 398 
Q 353 888 353 1747 
Q 353 2609 779 3096 
Q 1206 3584 1959 3584 
z
" id="DejaVuSans-6f" transform="scale(0.015625)"/>
       <path d="M 2906 2969 
L 2906 4863 
L 3481 4863 
L 3481 0 
L 2906 0 
L 2906 525 
Q 2725 213 2448 61 
Q 2172 -91 1784 -91 
Q 1150 -91 751 415 
Q 353 922 353 1747 
Q 353 2572 751 3078 
Q 1150 3584 1784 3584 
Q 2172 3584 2448 3432 
Q 2725 3281 2906 2969 
z
M 947 1747 
Q 947 1113 1208 752 
Q 1469 391 1925 391 
Q 2381 391 2643 752 
Q 2906 1113 2906 1747 
Q 2906 2381 2643 2742 
Q 2381 3103 1925 3103 
Q 1469 3103 1208 2742 
Q 947 2381 947 1747 
z
" id="DejaVuSans-64" transform="scale(0.015625)"/>
       <path id="DejaVuSans-20" transform="scale(0.015625)"/>
       <path d="M 2631 2963 
Q 2534 3019 2420 3045 
Q 2306 3072 2169 3072 
Q 1681 3072 1420 2755 
Q 1159 2438 1159 1844 
L 1159 0 
L 581 0 
L 581 3500 
L 1159 3500 
L 1159 2956 
Q 1341 3275 1631 3429 
Q 1922 3584 2338 3584 
Q 2397 3584 2469 3576 
Q 2541 3569 2628 3553 
L 2631 2963 
z
" id="DejaVuSans-72" transform="scale(0.015625)"/>
      </defs>
      <use xlink:href="#DejaVuSans-67"/>
      <use x="63.476562" xlink:href="#DejaVuSans-6f"/>
      <use x="124.658203" xlink:href="#DejaVuSans-6f"/>
      <use x="185.839844" xlink:href="#DejaVuSans-64"/>
      <use x="249.316406" xlink:href="#DejaVuSans-20"/>
      <use x="281.103516" xlink:href="#DejaVuSans-73"/>
      <use x="333.203125" xlink:href="#DejaVuSans-63"/>
      <use x="388.183594" xlink:href="#DejaVuSans-6f"/>
      <use x="449.365234" xlink:href="#DejaVuSans-72"/>
      <use x="488.228516" xlink:href="#DejaVuSans-65"/>
     </g>
    </g>
   </g>
   <g id="patch_3">
    <path d="M 57.6 307.584 
L 57.6 41.472 
" style="fill:none;stroke:#000000;stroke-linecap:square;stroke-linejoin:miter;stroke-width:0.8;"/>
   </g>
   <g id="patch_4">
    <path d="M 414.72 307.584 
L 414.72 41.472 
" style="fill:none;stroke:#000000;stroke-linecap:square;stroke-linejoin:miter;stroke-width:0.8;"/>
   </g>
   <g id="patch_5">
    <path d="M 57.6 307.584 
L 414.72 307.584 
" style="fill:none;stroke:#000000;stroke-linecap:square;stroke-linejoin:miter;stroke-width:0.8;"/>
   </g>
   <g id="patch_6">
    <path d="M 57.6 41.472 
L 414.72 41.472 
" style="fill:none;stroke:#000000;stroke-linecap:square;stroke-linejoin:miter;stroke-width:0.8;"/>
   </g>
   <g id="text_18">
    <!-- Non-Racism/Sexism Scores Timeline -->
    <g transform="translate(127.53 35.472)scale(0.12 -0.12)">
     <defs>
      <path d="M 628 4666 
L 1478 4666 
L 3547 763 
L 3547 4666 
L 4159 4666 
L 4159 0 
L 3309 0 
L 1241 3903 
L 1241 0 
L 628 0 
L 628 4666 
z
" id="DejaVuSans-4e" transform="scale(0.015625)"/>
      <path d="M 313 2009 
L 1997 2009 
L 1997 1497 
L 313 1497 
L 313 2009 
z
" id="DejaVuSans-2d" transform="scale(0.015625)"/>
      <path d="M 2841 2188 
Q 3044 2119 3236 1894 
Q 3428 1669 3622 1275 
L 4263 0 
L 3584 0 
L 2988 1197 
Q 2756 1666 2539 1819 
Q 2322 1972 1947 1972 
L 1259 1972 
L 1259 0 
L 628 0 
L 628 4666 
L 2053 4666 
Q 2853 4666 3247 4331 
Q 3641 3997 3641 3322 
Q 3641 2881 3436 2590 
Q 3231 2300 2841 2188 
z
M 1259 4147 
L 1259 2491 
L 2053 2491 
Q 2509 2491 2742 2702 
Q 2975 2913 2975 3322 
Q 2975 3731 2742 3939 
Q 2509 4147 2053 4147 
L 1259 4147 
z
" id="DejaVuSans-52" transform="scale(0.015625)"/>
      <path d="M 2194 1759 
Q 1497 1759 1228 1600 
Q 959 1441 959 1056 
Q 959 750 1161 570 
Q 1363 391 1709 391 
Q 2188 391 2477 730 
Q 2766 1069 2766 1631 
L 2766 1759 
L 2194 1759 
z
M 3341 1997 
L 3341 0 
L 2766 0 
L 2766 531 
Q 2569 213 2275 61 
Q 1981 -91 1556 -91 
Q 1019 -91 701 211 
Q 384 513 384 1019 
Q 384 1609 779 1909 
Q 1175 2209 1959 2209 
L 2766 2209 
L 2766 2266 
Q 2766 2663 2505 2880 
Q 2244 3097 1772 3097 
Q 1472 3097 1187 3025 
Q 903 2953 641 2809 
L 641 3341 
Q 956 3463 1253 3523 
Q 1550 3584 1831 3584 
Q 2591 3584 2966 3190 
Q 3341 2797 3341 1997 
z
" id="DejaVuSans-61" transform="scale(0.015625)"/>
      <path d="M 603 3500 
L 1178 3500 
L 1178 0 
L 603 0 
L 603 3500 
z
M 603 4863 
L 1178 4863 
L 1178 4134 
L 603 4134 
L 603 4863 
z
" id="DejaVuSans-69" transform="scale(0.015625)"/>
      <path d="M 3328 2828 
Q 3544 3216 3844 3400 
Q 4144 3584 4550 3584 
Q 5097 3584 5394 3201 
Q 5691 2819 5691 2113 
L 5691 0 
L 5113 0 
L 5113 2094 
Q 5113 2597 4934 2840 
Q 4756 3084 4391 3084 
Q 3944 3084 3684 2787 
Q 3425 2491 3425 1978 
L 3425 0 
L 2847 0 
L 2847 2094 
Q 2847 2600 2669 2842 
Q 2491 3084 2119 3084 
Q 1678 3084 1418 2786 
Q 1159 2488 1159 1978 
L 1159 0 
L 581 0 
L 581 3500 
L 1159 3500 
L 1159 2956 
Q 1356 3278 1631 3431 
Q 1906 3584 2284 3584 
Q 2666 3584 2933 3390 
Q 3200 3197 3328 2828 
z
" id="DejaVuSans-6d" transform="scale(0.015625)"/>
      <path d="M 1625 4666 
L 2156 4666 
L 531 -594 
L 0 -594 
L 1625 4666 
z
" id="DejaVuSans-2f" transform="scale(0.015625)"/>
      <path d="M 3425 4513 
L 3425 3897 
Q 3066 4069 2747 4153 
Q 2428 4238 2131 4238 
Q 1616 4238 1336 4038 
Q 1056 3838 1056 3469 
Q 1056 3159 1242 3001 
Q 1428 2844 1947 2747 
L 2328 2669 
Q 3034 2534 3370 2195 
Q 3706 1856 3706 1288 
Q 3706 609 3251 259 
Q 2797 -91 1919 -91 
Q 1588 -91 1214 -16 
Q 841 59 441 206 
L 441 856 
Q 825 641 1194 531 
Q 1563 422 1919 422 
Q 2459 422 2753 634 
Q 3047 847 3047 1241 
Q 3047 1584 2836 1778 
Q 2625 1972 2144 2069 
L 1759 2144 
Q 1053 2284 737 2584 
Q 422 2884 422 3419 
Q 422 4038 858 4394 
Q 1294 4750 2059 4750 
Q 2388 4750 2728 4690 
Q 3069 4631 3425 4513 
z
" id="DejaVuSans-53" transform="scale(0.015625)"/>
      <path d="M 3513 3500 
L 2247 1797 
L 3578 0 
L 2900 0 
L 1881 1375 
L 863 0 
L 184 0 
L 1544 1831 
L 300 3500 
L 978 3500 
L 1906 2253 
L 2834 3500 
L 3513 3500 
z
" id="DejaVuSans-78" transform="scale(0.015625)"/>
      <path d="M -19 4666 
L 3928 4666 
L 3928 4134 
L 2272 4134 
L 2272 0 
L 1638 0 
L 1638 4134 
L -19 4134 
L -19 4666 
z
" id="DejaVuSans-54" transform="scale(0.015625)"/>
      <path d="M 603 4863 
L 1178 4863 
L 1178 0 
L 603 0 
L 603 4863 
z
" id="DejaVuSans-6c" transform="scale(0.015625)"/>
     </defs>
     <use xlink:href="#DejaVuSans-4e"/>
     <use x="74.804688" xlink:href="#DejaVuSans-6f"/>
     <use x="135.986328" xlink:href="#DejaVuSans-6e"/>
     <use x="199.365234" xlink:href="#DejaVuSans-2d"/>
     <use x="235.449219" xlink:href="#DejaVuSans-52"/>
     <use x="302.681641" xlink:href="#DejaVuSans-61"/>
     <use x="363.960938" xlink:href="#DejaVuSans-63"/>
     <use x="418.941406" xlink:href="#DejaVuSans-69"/>
     <use x="446.724609" xlink:href="#DejaVuSans-73"/>
     <use x="498.824219" xlink:href="#DejaVuSans-6d"/>
     <use x="596.236328" xlink:href="#DejaVuSans-2f"/>
     <use x="629.927734" xlink:href="#DejaVuSans-53"/>
     <use x="693.404297" xlink:href="#DejaVuSans-65"/>
     <use x="753.177734" xlink:href="#DejaVuSans-78"/>
     <use x="812.357422" xlink:href="#DejaVuSans-69"/>
     <use x="840.140625" xlink:href="#DejaVuSans-73"/>
     <use x="892.240234" xlink:href="#DejaVuSans-6d"/>
     <use x="989.652344" xlink:href="#DejaVuSans-20"/>
     <use x="1021.439453" xlink:href="#DejaVuSans-53"/>
     <use x="1084.916016" xlink:href="#DejaVuSans-63"/>
     <use x="1139.896484" xlink:href="#DejaVuSans-6f"/>
     <use x="1201.078125" xlink:href="#DejaVuSans-72"/>
     <use x="1239.941406" xlink:href="#DejaVuSans-65"/>
     <use x="1301.464844" xlink:href="#DejaVuSans-73"/>
     <use x="1353.564453" xlink:href="#DejaVuSans-20"/>
     <use x="1385.351562" xlink:href="#DejaVuSans-54"/>
     <use x="1443.310547" xlink:href="#DejaVuSans-69"/>
     <use x="1471.09375" xlink:href="#DejaVuSans-6d"/>
     <use x="1568.505859" xlink:href="#DejaVuSans-65"/>
     <use x="1630.029297" xlink:href="#DejaVuSans-6c"/>
     <use x="1657.8125" xlink:href="#DejaVuSans-69"/>
     <use x="1685.595703" xlink:href="#DejaVuSans-6e"/>
     <use x="1748.974609" xlink:href="#DejaVuSans-65"/>
    </g>
   </g>
  </g>
  <g id="axes_2">
   <g id="patch_7">
    <path d="M 57.6 307.584 
L 414.72 307.584 
L 414.72 41.472 
L 57.6 41.472 
z
" style="fill:#ffffff;"/>
   </g>
   <g id="matplotlib.axis_3"/>
   <g id="matplotlib.axis_4"/>
   <g id="line2d_16">
    <path clip-path="url(#p183cb5dda3)" d="M 73.832727 295.488 
L 75.342748 184.271234 
L 76.85277 145.794057 
L 78.362791 54.779177 
L 79.872812 117.739788 
L 81.382833 293.907538 
L 82.892854 182.942218 
L 84.402875 59.085213 
L 85.912896 65.701581 
L 87.422918 204.474535 
L 88.932939 91.993839 
L 90.44296 53.570727 
L 91.952981 55.359994 
L 93.463002 56.728731 
L 94.973023 93.355597 
L 96.483044 172.229819 
L 97.993066 57.971109 
L 99.503087 261.170063 
L 101.013108 55.228026 
L 102.523129 132.654398 
L 104.03315 67.214815 
L 105.543171 53.726692 
L 107.053192 54.974126 
L 108.563214 53.568 
L 110.073235 78.462329 
L 111.583256 75.477541 
L 113.093277 91.17201 
L 114.603298 74.786543 
L 116.113319 77.577455 
L 117.62334 58.486425 
L 119.133362 294.660054 
L 120.643383 252.621382 
L 122.153404 64.885292 
L 123.663425 291.831531 
L 125.173446 268.648719 
L 126.683467 94.510406 
L 128.193488 256.506391 
L 129.70351 161.018581 
L 131.213531 293.102141 
L 132.723552 293.282055 
L 134.233573 118.456552 
L 135.743594 191.851644 
L 137.253615 59.903646 
L 138.763636 277.867258 
L 140.273658 114.458545 
L 141.783679 142.446547 
L 143.2937 200.443251 
L 144.803721 231.688832 
L 146.313742 229.701149 
L 147.823763 272.510954 
L 149.333784 235.895191 
L 150.843805 221.443881 
L 152.353827 56.969938 
L 153.863848 108.142097 
L 155.373869 167.213117 
L 156.88389 57.033626 
L 158.393911 84.684512 
L 159.903932 295.271507 
L 161.413953 115.265126 
L 162.923975 211.995661 
L 164.433996 61.055834 
L 165.944017 251.236571 
L 167.454038 277.58431 
L 168.964059 74.875847 
L 170.47408 295.135482 
L 171.984101 133.548891 
L 173.494123 151.951081 
L 175.004144 77.05754 
L 176.514165 56.092066 
L 178.024186 66.128547 
L 179.534207 61.08238 
L 181.044228 75.361738 
L 182.554249 245.137671 
L 184.064271 121.243673 
L 185.574292 101.766376 
L 187.084313 142.824997 
L 188.594334 247.955819 
L 190.104355 289.921122 
L 191.614376 201.549031 
L 193.124397 62.88348 
L 194.634419 132.975687 
L 196.14444 57.441877 
L 197.654461 179.733966 
L 199.164482 100.931791 
L 200.674503 99.455582 
L 202.184524 121.872491 
L 203.694545 210.7283 
L 205.204567 250.473435 
L 206.714588 215.530981 
L 208.224609 265.661102 
L 209.73463 251.082488 
L 211.244651 277.847957 
L 212.754672 264.54099 
L 214.264693 152.843742 
L 215.774715 291.746328 
L 217.284736 66.616548 
L 218.794757 54.325894 
L 220.304778 103.272446 
L 221.814799 132.406703 
L 223.32482 168.932739 
L 224.834841 176.729249 
L 226.344863 55.683098 
L 227.854884 57.08514 
L 229.364905 88.850319 
L 230.874926 76.565753 
L 232.384947 87.7811 
L 233.894968 70.440157 
L 235.404989 176.518017 
L 236.915011 95.177346 
L 238.425032 54.014843 
L 239.935053 90.252411 
L 241.445074 131.059427 
L 242.955095 233.71762 
L 244.465116 258.273984 
L 245.975137 201.765753 
L 247.485159 90.815381 
L 248.99518 285.755627 
L 250.505201 63.353455 
L 252.015222 64.967822 
L 253.525243 214.659685 
L 255.035264 152.895186 
L 256.545285 150.62843 
L 258.055307 210.841655 
L 259.565328 215.118559 
L 261.075349 215.118559 
L 262.58537 274.061549 
L 264.095391 183.18979 
L 267.115433 72.92621 
L 268.625455 210.80869 
L 270.135476 245.035468 
L 271.645497 295.488 
L 273.155518 263.480224 
L 274.665539 62.527571 
L 276.17556 140.530191 
L 277.685581 55.281024 
L 279.195603 290.384552 
L 280.705624 91.285109 
L 282.215645 118.623666 
L 283.725666 73.753408 
L 285.235687 54.256438 
L 286.745708 190.23893 
L 288.255729 63.381979 
L 289.765751 70.003106 
L 291.275772 62.13722 
L 292.785793 67.441967 
L 294.295814 90.370796 
L 295.805835 271.020759 
L 297.315856 255.297731 
L 298.825877 53.588767 
L 300.335899 54.826915 
L 301.84592 54.575697 
L 303.355941 80.919341 
L 304.865962 53.802678 
L 306.375983 209.711181 
L 307.886004 74.888033 
L 309.396025 80.495379 
L 310.906047 61.84798 
L 312.416068 287.588837 
L 313.926089 62.924104 
L 315.43611 261.248867 
L 316.946131 130.871318 
L 318.456152 92.104791 
L 319.966173 264.532425 
L 321.476195 288.51669 
L 322.986216 183.18979 
L 324.496237 293.251657 
L 326.006258 242.488935 
L 327.516279 269.360486 
L 329.0263 173.232058 
L 330.536321 180.676545 
L 332.046342 73.3287 
L 333.556364 179.733966 
L 335.066385 53.939643 
L 336.576406 123.298629 
L 338.086427 145.398263 
L 339.596448 90.787793 
L 341.106469 57.761449 
L 342.61649 53.653113 
L 344.126512 57.813343 
L 345.636533 53.942305 
L 347.146554 67.754848 
L 348.656575 53.745166 
L 350.166596 90.491991 
L 351.676617 280.393808 
L 353.186638 58.448835 
L 354.69666 61.748324 
L 356.206681 151.348707 
L 357.716702 217.525377 
L 359.226723 259.596745 
L 360.736744 178.143341 
L 362.246765 109.827227 
L 363.756786 149.117812 
L 365.266808 236.004739 
L 366.776829 265.596068 
L 368.28685 54.063563 
L 369.796871 62.911673 
L 371.306892 54.933447 
L 372.816913 212.971773 
L 374.326934 200.634433 
L 375.836956 175.183624 
L 377.346977 60.152671 
L 378.856998 62.228411 
L 380.367019 140.522371 
L 381.87704 133.572174 
L 383.387061 62.371706 
L 384.897082 98.892775 
L 386.407104 88.937413 
L 387.917125 66.163793 
L 389.427146 55.468169 
L 390.937167 92.664901 
L 392.447188 141.834127 
L 393.957209 138.031636 
L 395.46723 64.560682 
L 396.977252 121.57918 
L 398.487273 156.094486 
L 398.487273 156.094486 
" style="fill:none;stroke:#1f77b4;stroke-linecap:square;stroke-width:1.5;"/>
   </g>
   <g id="line2d_17">
    <path clip-path="url(#p183cb5dda3)" d="M 73.832727 295.488 
L 75.342748 284.366323 
L 76.85277 270.509097 
L 78.362791 248.936105 
L 79.872812 235.816473 
L 81.382833 241.62558 
L 82.892854 235.757243 
L 84.402875 218.09004 
L 85.912896 202.851194 
L 87.422918 203.013528 
L 88.932939 191.911559 
L 90.44296 178.077476 
L 91.952981 165.805728 
L 93.463002 154.898028 
L 94.973023 148.743785 
L 96.483044 151.092389 
L 97.993066 141.780261 
L 99.503087 153.719241 
L 101.013108 143.870119 
L 102.523129 142.748547 
L 104.03315 135.195174 
L 105.543171 127.048326 
L 107.053192 119.840906 
L 108.563214 113.213615 
L 111.583256 106.312392 
L 113.093277 104.798354 
L 114.603298 101.797173 
L 116.113319 99.375201 
L 117.62334 95.286323 
L 119.133362 115.223696 
L 120.643383 128.963465 
L 122.153404 122.555648 
L 123.663425 139.483236 
L 125.173446 152.399784 
L 126.683467 146.610847 
L 128.193488 157.600401 
L 129.70351 157.942219 
L 131.213531 171.458211 
L 132.723552 183.640596 
L 134.233573 177.122191 
L 135.743594 178.595137 
L 137.253615 166.725987 
L 138.763636 177.840115 
L 140.273658 171.501958 
L 141.783679 168.596417 
L 143.2937 171.7811 
L 144.803721 177.771873 
L 146.313742 182.964801 
L 147.823763 191.919416 
L 149.333784 196.316994 
L 150.843805 198.829682 
L 152.353827 184.643708 
L 153.863848 176.993547 
L 155.373869 176.015504 
L 156.88389 164.117316 
L 158.393911 156.174036 
L 159.903932 170.083783 
L 161.413953 164.601917 
L 162.923975 169.341292 
L 164.433996 158.512746 
L 165.944017 167.785128 
L 167.454038 178.765046 
L 168.964059 168.376126 
L 170.47408 181.052062 
L 171.984101 176.301745 
L 173.494123 173.866679 
L 175.004144 164.185765 
L 176.514165 153.376395 
L 179.534207 136.294687 
L 181.044228 130.201392 
L 182.554249 141.69502 
L 184.064271 139.649885 
L 185.574292 135.861534 
L 187.084313 136.557881 
L 188.594334 147.697674 
L 190.104355 161.920019 
L 191.614376 165.88292 
L 193.124397 155.582976 
L 194.634419 153.322247 
L 196.14444 143.73421 
L 197.654461 147.334186 
L 200.674503 138.37011 
L 202.184524 136.720348 
L 203.694545 144.121143 
L 205.204567 154.756372 
L 206.714588 160.833833 
L 208.224609 171.31656 
L 209.73463 179.293153 
L 211.244651 189.148633 
L 212.754672 196.687869 
L 214.264693 192.303456 
L 215.774715 202.247744 
L 218.794757 175.248751 
L 220.304778 168.051121 
L 221.814799 164.486679 
L 223.32482 164.931285 
L 224.834841 166.111081 
L 226.344863 155.068283 
L 227.854884 145.269969 
L 229.364905 139.628004 
L 230.874926 133.321779 
L 232.384947 128.767711 
L 233.894968 122.934955 
L 235.404989 128.293262 
L 236.915011 124.98167 
L 238.425032 117.884987 
L 239.935053 115.12173 
L 241.445074 116.715499 
L 242.955095 128.415712 
L 244.465116 141.401539 
L 245.975137 147.43796 
L 247.485159 141.775702 
L 248.99518 156.173695 
L 250.505201 146.891671 
L 252.015222 138.699286 
L 253.525243 146.295326 
L 255.035264 146.955312 
L 256.545285 147.322624 
L 259.565328 159.81893 
L 261.075349 165.348893 
L 262.58537 176.220158 
L 264.095391 176.917122 
L 265.605412 172.110092 
L 267.115433 162.191704 
L 268.625455 167.053402 
L 270.135476 174.851609 
L 271.645497 186.915248 
L 273.155518 194.571746 
L 274.665539 181.367328 
L 276.17556 177.283614 
L 277.685581 165.083355 
L 279.195603 177.613475 
L 280.705624 168.980638 
L 282.215645 163.944941 
L 283.725666 154.925788 
L 285.235687 144.858853 
L 286.745708 149.396861 
L 288.255729 140.795372 
L 291.275772 126.558253 
L 292.785793 120.646625 
L 294.295814 117.619042 
L 295.805835 132.959213 
L 297.315856 145.193065 
L 298.825877 136.032635 
L 300.335899 127.912063 
L 301.84592 120.578427 
L 303.355941 116.612518 
L 304.865962 110.331534 
L 306.375983 120.269499 
L 307.886004 115.731352 
L 309.396025 112.207755 
L 310.906047 107.171777 
L 312.416068 125.213483 
L 313.926089 118.984545 
L 315.43611 133.210978 
L 316.946131 132.977012 
L 318.456152 128.88979 
L 319.966173 142.454053 
L 321.476195 157.060317 
L 322.986216 159.673264 
L 324.496237 173.031103 
L 326.006258 179.976887 
L 327.516279 188.915247 
L 329.0263 187.346928 
L 330.536321 186.67989 
L 332.046342 175.344771 
L 333.556364 175.78369 
L 335.066385 163.599285 
L 336.576406 159.56922 
L 338.086427 158.152124 
L 339.596448 151.415691 
L 342.61649 133.210551 
L 345.636533 118.497978 
L 347.146554 113.423665 
L 348.656575 107.455815 
L 350.166596 105.759433 
L 351.676617 123.22287 
L 353.186638 116.745467 
L 354.69666 111.245752 
L 356.206681 115.256048 
L 357.716702 125.482981 
L 359.226723 138.894357 
L 360.736744 142.819256 
L 362.246765 139.520053 
L 363.756786 140.479829 
L 365.266808 150.03232 
L 366.776829 161.588695 
L 368.28685 150.836181 
L 371.306892 133.332702 
L 372.816913 141.296609 
L 374.326934 147.230392 
L 375.836956 150.025715 
L 377.346977 141.03841 
L 378.856998 133.157411 
L 380.367019 133.893907 
L 381.87704 133.861733 
L 383.387061 126.712731 
L 384.897082 123.930735 
L 386.407104 120.431403 
L 387.917125 115.004642 
L 389.427146 109.050995 
L 390.937167 107.412385 
L 392.447188 110.854559 
L 393.957209 113.572267 
L 395.46723 108.671109 
L 396.977252 109.961916 
L 398.487273 114.575173 
L 398.487273 114.575173 
" style="fill:none;stroke:#ff7f0e;stroke-linecap:square;stroke-width:1.5;"/>
   </g>
   <g id="patch_8">
    <path d="M 57.6 307.584 
L 57.6 41.472 
" style="fill:none;stroke:#000000;stroke-linecap:square;stroke-linejoin:miter;stroke-width:0.8;"/>
   </g>
   <g id="patch_9">
    <path d="M 414.72 307.584 
L 414.72 41.472 
" style="fill:none;stroke:#000000;stroke-linecap:square;stroke-linejoin:miter;stroke-width:0.8;"/>
   </g>
   <g id="patch_10">
    <path d="M 57.6 307.584 
L 414.72 307.584 
" style="fill:none;stroke:#000000;stroke-linecap:square;stroke-linejoin:miter;stroke-width:0.8;"/>
   </g>
   <g id="patch_11">
    <path d="M 57.6 41.472 
L 414.72 41.472 
" style="fill:none;stroke:#000000;stroke-linecap:square;stroke-linejoin:miter;stroke-width:0.8;"/>
   </g>
  </g>
 </g>
 <defs>
  <clipPath id="p183cb5dda3">
   <rect height="266.112" width="357.12" x="57.6" y="41.472"/>
  </clipPath>
 </defs>
</svg>
