<?xml version="1.0" encoding="utf-8" standalone="no"?>
<!DOCTYPE svg PUBLIC "-//W3C//DTD SVG 1.1//EN"
  "http://www.w3.org/Graphics/SVG/1.1/DTD/svg11.dtd">
<svg height="345.6pt" version="1.1" viewBox="0 0 460.8 345.6" width="460.8pt" xmlns="http://www.w3.org/2000/svg" xmlns:xlink="http://www.w3.org/1999/xlink">
 <metadata>
  <rdf:RDF xmlns:cc="http://creativecommons.org/ns#" xmlns:dc="http://purl.org/dc/elements/1.1/" xmlns:rdf="http://www.w3.org/1999/02/22-rdf-syntax-ns#">
   <cc:Work>
    <dc:type rdf:resource="http://purl.org/dc/dcmitype/StillImage"/>
    <dc:date>2021-10-03T02:36:28.368395</dc:date>
    <dc:format>image/svg+xml</dc:format>
    <dc:creator>
     <cc:Agent>
      <dc:title>Matplotlib v3.4.3, https://matplotlib.org/</dc:title>
     </cc:Agent>
    </dc:creator>
   </cc:Work>
  </rdf:RDF>
 </metadata>
 <defs>
  <style type="text/css">*{stroke-linecap:butt;stroke-linejoin:round;}</style>
 </defs>
 <g id="figure_1">
  <g id="patch_1">
   <path d="M 0 345.6 
L 460.8 345.6 
L 460.8 0 
L 0 0 
z
" style="fill:#ffffff;"/>
  </g>
  <g id="axes_1">
   <g id="patch_2">
    <path d="M 57.6 307.584 
L 414.72 307.584 
L 414.72 41.472 
L 57.6 41.472 
z
" style="fill:#ffffff;"/>
   </g>
   <g id="matplotlib.axis_1">
    <g id="xtick_1">
     <g id="line2d_1">
      <defs>
       <path d="M 0 0 
L 0 3.5 
" id="mb16d1b32a5" style="stroke:#000000;stroke-width:0.8;"/>
      </defs>
      <g>
       <use style="stroke:#000000;stroke-width:0.8;" x="57.6" xlink:href="#mb16d1b32a5" y="307.584"/>
      </g>
     </g>
     <g id="text_1">
      <!-- 0 -->
      <g transform="translate(54.41875 322.182437)scale(0.1 -0.1)">
       <defs>
        <path d="M 2034 4250 
Q 1547 4250 1301 3770 
Q 1056 3291 1056 2328 
Q 1056 1369 1301 889 
Q 1547 409 2034 409 
Q 2525 409 2770 889 
Q 3016 1369 3016 2328 
Q 3016 3291 2770 3770 
Q 2525 4250 2034 4250 
z
M 2034 4750 
Q 2819 4750 3233 4129 
Q 3647 3509 3647 2328 
Q 3647 1150 3233 529 
Q 2819 -91 2034 -91 
Q 1250 -91 836 529 
Q 422 1150 422 2328 
Q 422 3509 836 4129 
Q 1250 4750 2034 4750 
z
" id="DejaVuSans-30" transform="scale(0.015625)"/>
       </defs>
       <use xlink:href="#DejaVuSans-30"/>
      </g>
     </g>
    </g>
    <g id="xtick_2">
     <g id="line2d_2">
      <g>
       <use style="stroke:#000000;stroke-width:0.8;" x="98.933333" xlink:href="#mb16d1b32a5" y="307.584"/>
      </g>
     </g>
     <g id="text_2">
      <!-- 25 -->
      <g transform="translate(92.570833 322.182437)scale(0.1 -0.1)">
       <defs>
        <path d="M 1228 531 
L 3431 531 
L 3431 0 
L 469 0 
L 469 531 
Q 828 903 1448 1529 
Q 2069 2156 2228 2338 
Q 2531 2678 2651 2914 
Q 2772 3150 2772 3378 
Q 2772 3750 2511 3984 
Q 2250 4219 1831 4219 
Q 1534 4219 1204 4116 
Q 875 4013 500 3803 
L 500 4441 
Q 881 4594 1212 4672 
Q 1544 4750 1819 4750 
Q 2544 4750 2975 4387 
Q 3406 4025 3406 3419 
Q 3406 3131 3298 2873 
Q 3191 2616 2906 2266 
Q 2828 2175 2409 1742 
Q 1991 1309 1228 531 
z
" id="DejaVuSans-32" transform="scale(0.015625)"/>
        <path d="M 691 4666 
L 3169 4666 
L 3169 4134 
L 1269 4134 
L 1269 2991 
Q 1406 3038 1543 3061 
Q 1681 3084 1819 3084 
Q 2600 3084 3056 2656 
Q 3513 2228 3513 1497 
Q 3513 744 3044 326 
Q 2575 -91 1722 -91 
Q 1428 -91 1123 -41 
Q 819 9 494 109 
L 494 744 
Q 775 591 1075 516 
Q 1375 441 1709 441 
Q 2250 441 2565 725 
Q 2881 1009 2881 1497 
Q 2881 1984 2565 2268 
Q 2250 2553 1709 2553 
Q 1456 2553 1204 2497 
Q 953 2441 691 2322 
L 691 4666 
z
" id="DejaVuSans-35" transform="scale(0.015625)"/>
       </defs>
       <use xlink:href="#DejaVuSans-32"/>
       <use x="63.623047" xlink:href="#DejaVuSans-35"/>
      </g>
     </g>
    </g>
    <g id="xtick_3">
     <g id="line2d_3">
      <g>
       <use style="stroke:#000000;stroke-width:0.8;" x="140.266667" xlink:href="#mb16d1b32a5" y="307.584"/>
      </g>
     </g>
     <g id="text_3">
      <!-- 50 -->
      <g transform="translate(133.904167 322.182437)scale(0.1 -0.1)">
       <use xlink:href="#DejaVuSans-35"/>
       <use x="63.623047" xlink:href="#DejaVuSans-30"/>
      </g>
     </g>
    </g>
    <g id="xtick_4">
     <g id="line2d_4">
      <g>
       <use style="stroke:#000000;stroke-width:0.8;" x="181.6" xlink:href="#mb16d1b32a5" y="307.584"/>
      </g>
     </g>
     <g id="text_4">
      <!-- 75 -->
      <g transform="translate(175.2375 322.182437)scale(0.1 -0.1)">
       <defs>
        <path d="M 525 4666 
L 3525 4666 
L 3525 4397 
L 1831 0 
L 1172 0 
L 2766 4134 
L 525 4134 
L 525 4666 
z
" id="DejaVuSans-37" transform="scale(0.015625)"/>
       </defs>
       <use xlink:href="#DejaVuSans-37"/>
       <use x="63.623047" xlink:href="#DejaVuSans-35"/>
      </g>
     </g>
    </g>
    <g id="xtick_5">
     <g id="line2d_5">
      <g>
       <use style="stroke:#000000;stroke-width:0.8;" x="222.933333" xlink:href="#mb16d1b32a5" y="307.584"/>
      </g>
     </g>
     <g id="text_5">
      <!-- 100 -->
      <g transform="translate(213.389583 322.182437)scale(0.1 -0.1)">
       <defs>
        <path d="M 794 531 
L 1825 531 
L 1825 4091 
L 703 3866 
L 703 4441 
L 1819 4666 
L 2450 4666 
L 2450 531 
L 3481 531 
L 3481 0 
L 794 0 
L 794 531 
z
" id="DejaVuSans-31" transform="scale(0.015625)"/>
       </defs>
       <use xlink:href="#DejaVuSans-31"/>
       <use x="63.623047" xlink:href="#DejaVuSans-30"/>
       <use x="127.246094" xlink:href="#DejaVuSans-30"/>
      </g>
     </g>
    </g>
    <g id="xtick_6">
     <g id="line2d_6">
      <g>
       <use style="stroke:#000000;stroke-width:0.8;" x="264.266667" xlink:href="#mb16d1b32a5" y="307.584"/>
      </g>
     </g>
     <g id="text_6">
      <!-- 125 -->
      <g transform="translate(254.722917 322.182437)scale(0.1 -0.1)">
       <use xlink:href="#DejaVuSans-31"/>
       <use x="63.623047" xlink:href="#DejaVuSans-32"/>
       <use x="127.246094" xlink:href="#DejaVuSans-35"/>
      </g>
     </g>
    </g>
    <g id="xtick_7">
     <g id="line2d_7">
      <g>
       <use style="stroke:#000000;stroke-width:0.8;" x="305.6" xlink:href="#mb16d1b32a5" y="307.584"/>
      </g>
     </g>
     <g id="text_7">
      <!-- 150 -->
      <g transform="translate(296.05625 322.182437)scale(0.1 -0.1)">
       <use xlink:href="#DejaVuSans-31"/>
       <use x="63.623047" xlink:href="#DejaVuSans-35"/>
       <use x="127.246094" xlink:href="#DejaVuSans-30"/>
      </g>
     </g>
    </g>
    <g id="xtick_8">
     <g id="line2d_8">
      <g>
       <use style="stroke:#000000;stroke-width:0.8;" x="346.933333" xlink:href="#mb16d1b32a5" y="307.584"/>
      </g>
     </g>
     <g id="text_8">
      <!-- 175 -->
      <g transform="translate(337.389583 322.182437)scale(0.1 -0.1)">
       <use xlink:href="#DejaVuSans-31"/>
       <use x="63.623047" xlink:href="#DejaVuSans-37"/>
       <use x="127.246094" xlink:href="#DejaVuSans-35"/>
      </g>
     </g>
    </g>
    <g id="xtick_9">
     <g id="line2d_9">
      <g>
       <use style="stroke:#000000;stroke-width:0.8;" x="388.266667" xlink:href="#mb16d1b32a5" y="307.584"/>
      </g>
     </g>
     <g id="text_9">
      <!-- 200 -->
      <g transform="translate(378.722917 322.182437)scale(0.1 -0.1)">
       <use xlink:href="#DejaVuSans-32"/>
       <use x="63.623047" xlink:href="#DejaVuSans-30"/>
       <use x="127.246094" xlink:href="#DejaVuSans-30"/>
      </g>
     </g>
    </g>
    <g id="text_10">
     <!-- sentence -->
     <g transform="translate(213.27875 335.860562)scale(0.1 -0.1)">
      <defs>
       <path d="M 2834 3397 
L 2834 2853 
Q 2591 2978 2328 3040 
Q 2066 3103 1784 3103 
Q 1356 3103 1142 2972 
Q 928 2841 928 2578 
Q 928 2378 1081 2264 
Q 1234 2150 1697 2047 
L 1894 2003 
Q 2506 1872 2764 1633 
Q 3022 1394 3022 966 
Q 3022 478 2636 193 
Q 2250 -91 1575 -91 
Q 1294 -91 989 -36 
Q 684 19 347 128 
L 347 722 
Q 666 556 975 473 
Q 1284 391 1588 391 
Q 1994 391 2212 530 
Q 2431 669 2431 922 
Q 2431 1156 2273 1281 
Q 2116 1406 1581 1522 
L 1381 1569 
Q 847 1681 609 1914 
Q 372 2147 372 2553 
Q 372 3047 722 3315 
Q 1072 3584 1716 3584 
Q 2034 3584 2315 3537 
Q 2597 3491 2834 3397 
z
" id="DejaVuSans-73" transform="scale(0.015625)"/>
       <path d="M 3597 1894 
L 3597 1613 
L 953 1613 
Q 991 1019 1311 708 
Q 1631 397 2203 397 
Q 2534 397 2845 478 
Q 3156 559 3463 722 
L 3463 178 
Q 3153 47 2828 -22 
Q 2503 -91 2169 -91 
Q 1331 -91 842 396 
Q 353 884 353 1716 
Q 353 2575 817 3079 
Q 1281 3584 2069 3584 
Q 2775 3584 3186 3129 
Q 3597 2675 3597 1894 
z
M 3022 2063 
Q 3016 2534 2758 2815 
Q 2500 3097 2075 3097 
Q 1594 3097 1305 2825 
Q 1016 2553 972 2059 
L 3022 2063 
z
" id="DejaVuSans-65" transform="scale(0.015625)"/>
       <path d="M 3513 2113 
L 3513 0 
L 2938 0 
L 2938 2094 
Q 2938 2591 2744 2837 
Q 2550 3084 2163 3084 
Q 1697 3084 1428 2787 
Q 1159 2491 1159 1978 
L 1159 0 
L 581 0 
L 581 3500 
L 1159 3500 
L 1159 2956 
Q 1366 3272 1645 3428 
Q 1925 3584 2291 3584 
Q 2894 3584 3203 3211 
Q 3513 2838 3513 2113 
z
" id="DejaVuSans-6e" transform="scale(0.015625)"/>
       <path d="M 1172 4494 
L 1172 3500 
L 2356 3500 
L 2356 3053 
L 1172 3053 
L 1172 1153 
Q 1172 725 1289 603 
Q 1406 481 1766 481 
L 2356 481 
L 2356 0 
L 1766 0 
Q 1100 0 847 248 
Q 594 497 594 1153 
L 594 3053 
L 172 3053 
L 172 3500 
L 594 3500 
L 594 4494 
L 1172 4494 
z
" id="DejaVuSans-74" transform="scale(0.015625)"/>
       <path d="M 3122 3366 
L 3122 2828 
Q 2878 2963 2633 3030 
Q 2388 3097 2138 3097 
Q 1578 3097 1268 2742 
Q 959 2388 959 1747 
Q 959 1106 1268 751 
Q 1578 397 2138 397 
Q 2388 397 2633 464 
Q 2878 531 3122 666 
L 3122 134 
Q 2881 22 2623 -34 
Q 2366 -91 2075 -91 
Q 1284 -91 818 406 
Q 353 903 353 1747 
Q 353 2603 823 3093 
Q 1294 3584 2113 3584 
Q 2378 3584 2631 3529 
Q 2884 3475 3122 3366 
z
" id="DejaVuSans-63" transform="scale(0.015625)"/>
      </defs>
      <use xlink:href="#DejaVuSans-73"/>
      <use x="52.099609" xlink:href="#DejaVuSans-65"/>
      <use x="113.623047" xlink:href="#DejaVuSans-6e"/>
      <use x="177.001953" xlink:href="#DejaVuSans-74"/>
      <use x="216.210938" xlink:href="#DejaVuSans-65"/>
      <use x="277.734375" xlink:href="#DejaVuSans-6e"/>
      <use x="341.113281" xlink:href="#DejaVuSans-63"/>
      <use x="396.09375" xlink:href="#DejaVuSans-65"/>
     </g>
    </g>
   </g>
   <g id="matplotlib.axis_2">
    <g id="ytick_1">
     <g id="line2d_10">
      <defs>
       <path d="M 0 0 
L -3.5 0 
" id="mdf32c0d558" style="stroke:#000000;stroke-width:0.8;"/>
      </defs>
      <g>
       <use style="stroke:#000000;stroke-width:0.8;" x="57.6" xlink:href="#mdf32c0d558" y="307.584"/>
      </g>
     </g>
     <g id="text_11">
      <!-- 0 -->
      <g transform="translate(44.2375 311.383219)scale(0.1 -0.1)">
       <use xlink:href="#DejaVuSans-30"/>
      </g>
     </g>
    </g>
    <g id="ytick_2">
     <g id="line2d_11">
      <g>
       <use style="stroke:#000000;stroke-width:0.8;" x="57.6" xlink:href="#mdf32c0d558" y="254.3616"/>
      </g>
     </g>
     <g id="text_12">
      <!-- 20 -->
      <g transform="translate(37.875 258.160819)scale(0.1 -0.1)">
       <use xlink:href="#DejaVuSans-32"/>
       <use x="63.623047" xlink:href="#DejaVuSans-30"/>
      </g>
     </g>
    </g>
    <g id="ytick_3">
     <g id="line2d_12">
      <g>
       <use style="stroke:#000000;stroke-width:0.8;" x="57.6" xlink:href="#mdf32c0d558" y="201.1392"/>
      </g>
     </g>
     <g id="text_13">
      <!-- 40 -->
      <g transform="translate(37.875 204.938419)scale(0.1 -0.1)">
       <defs>
        <path d="M 2419 4116 
L 825 1625 
L 2419 1625 
L 2419 4116 
z
M 2253 4666 
L 3047 4666 
L 3047 1625 
L 3713 1625 
L 3713 1100 
L 3047 1100 
L 3047 0 
L 2419 0 
L 2419 1100 
L 313 1100 
L 313 1709 
L 2253 4666 
z
" id="DejaVuSans-34" transform="scale(0.015625)"/>
       </defs>
       <use xlink:href="#DejaVuSans-34"/>
       <use x="63.623047" xlink:href="#DejaVuSans-30"/>
      </g>
     </g>
    </g>
    <g id="ytick_4">
     <g id="line2d_13">
      <g>
       <use style="stroke:#000000;stroke-width:0.8;" x="57.6" xlink:href="#mdf32c0d558" y="147.9168"/>
      </g>
     </g>
     <g id="text_14">
      <!-- 60 -->
      <g transform="translate(37.875 151.716019)scale(0.1 -0.1)">
       <defs>
        <path d="M 2113 2584 
Q 1688 2584 1439 2293 
Q 1191 2003 1191 1497 
Q 1191 994 1439 701 
Q 1688 409 2113 409 
Q 2538 409 2786 701 
Q 3034 994 3034 1497 
Q 3034 2003 2786 2293 
Q 2538 2584 2113 2584 
z
M 3366 4563 
L 3366 3988 
Q 3128 4100 2886 4159 
Q 2644 4219 2406 4219 
Q 1781 4219 1451 3797 
Q 1122 3375 1075 2522 
Q 1259 2794 1537 2939 
Q 1816 3084 2150 3084 
Q 2853 3084 3261 2657 
Q 3669 2231 3669 1497 
Q 3669 778 3244 343 
Q 2819 -91 2113 -91 
Q 1303 -91 875 529 
Q 447 1150 447 2328 
Q 447 3434 972 4092 
Q 1497 4750 2381 4750 
Q 2619 4750 2861 4703 
Q 3103 4656 3366 4563 
z
" id="DejaVuSans-36" transform="scale(0.015625)"/>
       </defs>
       <use xlink:href="#DejaVuSans-36"/>
       <use x="63.623047" xlink:href="#DejaVuSans-30"/>
      </g>
     </g>
    </g>
    <g id="ytick_5">
     <g id="line2d_14">
      <g>
       <use style="stroke:#000000;stroke-width:0.8;" x="57.6" xlink:href="#mdf32c0d558" y="94.6944"/>
      </g>
     </g>
     <g id="text_15">
      <!-- 80 -->
      <g transform="translate(37.875 98.493619)scale(0.1 -0.1)">
       <defs>
        <path d="M 2034 2216 
Q 1584 2216 1326 1975 
Q 1069 1734 1069 1313 
Q 1069 891 1326 650 
Q 1584 409 2034 409 
Q 2484 409 2743 651 
Q 3003 894 3003 1313 
Q 3003 1734 2745 1975 
Q 2488 2216 2034 2216 
z
M 1403 2484 
Q 997 2584 770 2862 
Q 544 3141 544 3541 
Q 544 4100 942 4425 
Q 1341 4750 2034 4750 
Q 2731 4750 3128 4425 
Q 3525 4100 3525 3541 
Q 3525 3141 3298 2862 
Q 3072 2584 2669 2484 
Q 3125 2378 3379 2068 
Q 3634 1759 3634 1313 
Q 3634 634 3220 271 
Q 2806 -91 2034 -91 
Q 1263 -91 848 271 
Q 434 634 434 1313 
Q 434 1759 690 2068 
Q 947 2378 1403 2484 
z
M 1172 3481 
Q 1172 3119 1398 2916 
Q 1625 2713 2034 2713 
Q 2441 2713 2670 2916 
Q 2900 3119 2900 3481 
Q 2900 3844 2670 4047 
Q 2441 4250 2034 4250 
Q 1625 4250 1398 4047 
Q 1172 3844 1172 3481 
z
" id="DejaVuSans-38" transform="scale(0.015625)"/>
       </defs>
       <use xlink:href="#DejaVuSans-38"/>
       <use x="63.623047" xlink:href="#DejaVuSans-30"/>
      </g>
     </g>
    </g>
    <g id="ytick_6">
     <g id="line2d_15">
      <g>
       <use style="stroke:#000000;stroke-width:0.8;" x="57.6" xlink:href="#mdf32c0d558" y="41.472"/>
      </g>
     </g>
     <g id="text_16">
      <!-- 100 -->
      <g transform="translate(31.5125 45.271219)scale(0.1 -0.1)">
       <use xlink:href="#DejaVuSans-31"/>
       <use x="63.623047" xlink:href="#DejaVuSans-30"/>
       <use x="127.246094" xlink:href="#DejaVuSans-30"/>
      </g>
     </g>
    </g>
    <g id="text_17">
     <!-- racism score -->
     <g transform="translate(25.432812 206.282688)rotate(-90)scale(0.1 -0.1)">
      <defs>
       <path d="M 2631 2963 
Q 2534 3019 2420 3045 
Q 2306 3072 2169 3072 
Q 1681 3072 1420 2755 
Q 1159 2438 1159 1844 
L 1159 0 
L 581 0 
L 581 3500 
L 1159 3500 
L 1159 2956 
Q 1341 3275 1631 3429 
Q 1922 3584 2338 3584 
Q 2397 3584 2469 3576 
Q 2541 3569 2628 3553 
L 2631 2963 
z
" id="DejaVuSans-72" transform="scale(0.015625)"/>
       <path d="M 2194 1759 
Q 1497 1759 1228 1600 
Q 959 1441 959 1056 
Q 959 750 1161 570 
Q 1363 391 1709 391 
Q 2188 391 2477 730 
Q 2766 1069 2766 1631 
L 2766 1759 
L 2194 1759 
z
M 3341 1997 
L 3341 0 
L 2766 0 
L 2766 531 
Q 2569 213 2275 61 
Q 1981 -91 1556 -91 
Q 1019 -91 701 211 
Q 384 513 384 1019 
Q 384 1609 779 1909 
Q 1175 2209 1959 2209 
L 2766 2209 
L 2766 2266 
Q 2766 2663 2505 2880 
Q 2244 3097 1772 3097 
Q 1472 3097 1187 3025 
Q 903 2953 641 2809 
L 641 3341 
Q 956 3463 1253 3523 
Q 1550 3584 1831 3584 
Q 2591 3584 2966 3190 
Q 3341 2797 3341 1997 
z
" id="DejaVuSans-61" transform="scale(0.015625)"/>
       <path d="M 603 3500 
L 1178 3500 
L 1178 0 
L 603 0 
L 603 3500 
z
M 603 4863 
L 1178 4863 
L 1178 4134 
L 603 4134 
L 603 4863 
z
" id="DejaVuSans-69" transform="scale(0.015625)"/>
       <path d="M 3328 2828 
Q 3544 3216 3844 3400 
Q 4144 3584 4550 3584 
Q 5097 3584 5394 3201 
Q 5691 2819 5691 2113 
L 5691 0 
L 5113 0 
L 5113 2094 
Q 5113 2597 4934 2840 
Q 4756 3084 4391 3084 
Q 3944 3084 3684 2787 
Q 3425 2491 3425 1978 
L 3425 0 
L 2847 0 
L 2847 2094 
Q 2847 2600 2669 2842 
Q 2491 3084 2119 3084 
Q 1678 3084 1418 2786 
Q 1159 2488 1159 1978 
L 1159 0 
L 581 0 
L 581 3500 
L 1159 3500 
L 1159 2956 
Q 1356 3278 1631 3431 
Q 1906 3584 2284 3584 
Q 2666 3584 2933 3390 
Q 3200 3197 3328 2828 
z
" id="DejaVuSans-6d" transform="scale(0.015625)"/>
       <path id="DejaVuSans-20" transform="scale(0.015625)"/>
       <path d="M 1959 3097 
Q 1497 3097 1228 2736 
Q 959 2375 959 1747 
Q 959 1119 1226 758 
Q 1494 397 1959 397 
Q 2419 397 2687 759 
Q 2956 1122 2956 1747 
Q 2956 2369 2687 2733 
Q 2419 3097 1959 3097 
z
M 1959 3584 
Q 2709 3584 3137 3096 
Q 3566 2609 3566 1747 
Q 3566 888 3137 398 
Q 2709 -91 1959 -91 
Q 1206 -91 779 398 
Q 353 888 353 1747 
Q 353 2609 779 3096 
Q 1206 3584 1959 3584 
z
" id="DejaVuSans-6f" transform="scale(0.015625)"/>
      </defs>
      <use xlink:href="#DejaVuSans-72"/>
      <use x="41.113281" xlink:href="#DejaVuSans-61"/>
      <use x="102.392578" xlink:href="#DejaVuSans-63"/>
      <use x="157.373047" xlink:href="#DejaVuSans-69"/>
      <use x="185.15625" xlink:href="#DejaVuSans-73"/>
      <use x="237.255859" xlink:href="#DejaVuSans-6d"/>
      <use x="334.667969" xlink:href="#DejaVuSans-20"/>
      <use x="366.455078" xlink:href="#DejaVuSans-73"/>
      <use x="418.554688" xlink:href="#DejaVuSans-63"/>
      <use x="473.535156" xlink:href="#DejaVuSans-6f"/>
      <use x="534.716797" xlink:href="#DejaVuSans-72"/>
      <use x="573.580078" xlink:href="#DejaVuSans-65"/>
     </g>
    </g>
   </g>
   <g id="patch_3">
    <path d="M 57.6 307.584 
L 57.6 41.472 
" style="fill:none;stroke:#000000;stroke-linecap:square;stroke-linejoin:miter;stroke-width:0.8;"/>
   </g>
   <g id="patch_4">
    <path d="M 414.72 307.584 
L 414.72 41.472 
" style="fill:none;stroke:#000000;stroke-linecap:square;stroke-linejoin:miter;stroke-width:0.8;"/>
   </g>
   <g id="patch_5">
    <path d="M 57.6 307.584 
L 414.72 307.584 
" style="fill:none;stroke:#000000;stroke-linecap:square;stroke-linejoin:miter;stroke-width:0.8;"/>
   </g>
   <g id="patch_6">
    <path d="M 57.6 41.472 
L 414.72 41.472 
" style="fill:none;stroke:#000000;stroke-linecap:square;stroke-linejoin:miter;stroke-width:0.8;"/>
   </g>
   <g id="text_18">
    <!-- Racism Scores Timeline -->
    <g transform="translate(165.2625 35.472)scale(0.12 -0.12)">
     <defs>
      <path d="M 2841 2188 
Q 3044 2119 3236 1894 
Q 3428 1669 3622 1275 
L 4263 0 
L 3584 0 
L 2988 1197 
Q 2756 1666 2539 1819 
Q 2322 1972 1947 1972 
L 1259 1972 
L 1259 0 
L 628 0 
L 628 4666 
L 2053 4666 
Q 2853 4666 3247 4331 
Q 3641 3997 3641 3322 
Q 3641 2881 3436 2590 
Q 3231 2300 2841 2188 
z
M 1259 4147 
L 1259 2491 
L 2053 2491 
Q 2509 2491 2742 2702 
Q 2975 2913 2975 3322 
Q 2975 3731 2742 3939 
Q 2509 4147 2053 4147 
L 1259 4147 
z
" id="DejaVuSans-52" transform="scale(0.015625)"/>
      <path d="M 3425 4513 
L 3425 3897 
Q 3066 4069 2747 4153 
Q 2428 4238 2131 4238 
Q 1616 4238 1336 4038 
Q 1056 3838 1056 3469 
Q 1056 3159 1242 3001 
Q 1428 2844 1947 2747 
L 2328 2669 
Q 3034 2534 3370 2195 
Q 3706 1856 3706 1288 
Q 3706 609 3251 259 
Q 2797 -91 1919 -91 
Q 1588 -91 1214 -16 
Q 841 59 441 206 
L 441 856 
Q 825 641 1194 531 
Q 1563 422 1919 422 
Q 2459 422 2753 634 
Q 3047 847 3047 1241 
Q 3047 1584 2836 1778 
Q 2625 1972 2144 2069 
L 1759 2144 
Q 1053 2284 737 2584 
Q 422 2884 422 3419 
Q 422 4038 858 4394 
Q 1294 4750 2059 4750 
Q 2388 4750 2728 4690 
Q 3069 4631 3425 4513 
z
" id="DejaVuSans-53" transform="scale(0.015625)"/>
      <path d="M -19 4666 
L 3928 4666 
L 3928 4134 
L 2272 4134 
L 2272 0 
L 1638 0 
L 1638 4134 
L -19 4134 
L -19 4666 
z
" id="DejaVuSans-54" transform="scale(0.015625)"/>
      <path d="M 603 4863 
L 1178 4863 
L 1178 0 
L 603 0 
L 603 4863 
z
" id="DejaVuSans-6c" transform="scale(0.015625)"/>
     </defs>
     <use xlink:href="#DejaVuSans-52"/>
     <use x="67.232422" xlink:href="#DejaVuSans-61"/>
     <use x="128.511719" xlink:href="#DejaVuSans-63"/>
     <use x="183.492188" xlink:href="#DejaVuSans-69"/>
     <use x="211.275391" xlink:href="#DejaVuSans-73"/>
     <use x="263.375" xlink:href="#DejaVuSans-6d"/>
     <use x="360.787109" xlink:href="#DejaVuSans-20"/>
     <use x="392.574219" xlink:href="#DejaVuSans-53"/>
     <use x="456.050781" xlink:href="#DejaVuSans-63"/>
     <use x="511.03125" xlink:href="#DejaVuSans-6f"/>
     <use x="572.212891" xlink:href="#DejaVuSans-72"/>
     <use x="611.076172" xlink:href="#DejaVuSans-65"/>
     <use x="672.599609" xlink:href="#DejaVuSans-73"/>
     <use x="724.699219" xlink:href="#DejaVuSans-20"/>
     <use x="756.486328" xlink:href="#DejaVuSans-54"/>
     <use x="814.445312" xlink:href="#DejaVuSans-69"/>
     <use x="842.228516" xlink:href="#DejaVuSans-6d"/>
     <use x="939.640625" xlink:href="#DejaVuSans-65"/>
     <use x="1001.164062" xlink:href="#DejaVuSans-6c"/>
     <use x="1028.947266" xlink:href="#DejaVuSans-69"/>
     <use x="1056.730469" xlink:href="#DejaVuSans-6e"/>
     <use x="1120.109375" xlink:href="#DejaVuSans-65"/>
    </g>
   </g>
  </g>
  <g id="axes_2">
   <g id="patch_7">
    <path d="M 57.6 307.584 
L 414.72 307.584 
L 414.72 41.472 
L 57.6 41.472 
z
" style="fill:#ffffff;"/>
   </g>
   <g id="matplotlib.axis_3"/>
   <g id="matplotlib.axis_4"/>
   <g id="line2d_16">
    <path clip-path="url(#pa71d8b56f6)" d="M 73.832727 53.568948 
L 75.342748 273.36775 
L 76.85277 290.951148 
L 78.362791 295.428544 
L 79.872812 286.577958 
L 81.382833 55.201739 
L 82.892854 294.447632 
L 84.402875 290.084741 
L 85.912896 295.287461 
L 87.422918 261.738141 
L 88.932939 295.350273 
L 90.44296 295.486581 
L 91.952981 293.801244 
L 93.463002 295.436289 
L 94.973023 295.425255 
L 96.483044 194.307418 
L 97.993066 295.421804 
L 99.503087 293.752731 
L 101.013108 294.919108 
L 102.523129 225.908678 
L 104.03315 293.506443 
L 105.543171 295.418889 
L 108.563214 295.487954 
L 110.073235 288.923949 
L 111.583256 292.160837 
L 113.093277 292.39818 
L 114.603298 294.152955 
L 116.113319 294.403114 
L 117.62334 290.99689 
L 119.133362 54.895554 
L 120.643383 146.713908 
L 122.153404 291.220971 
L 123.663425 58.107771 
L 125.173446 279.105392 
L 126.683467 294.036496 
L 128.193488 223.72565 
L 129.70351 295.46119 
L 131.213531 69.426482 
L 132.723552 73.59176 
L 134.233573 286.407347 
L 135.743594 249.989188 
L 137.253615 295.183353 
L 138.763636 295.487991 
L 141.783679 295.342426 
L 143.2937 213.283002 
L 144.803721 237.991306 
L 146.313742 292.764379 
L 147.823763 101.39844 
L 149.333784 208.940725 
L 150.843805 193.903248 
L 152.353827 295.120135 
L 153.863848 290.411798 
L 155.373869 293.166798 
L 156.88389 295.456944 
L 158.393911 292.804503 
L 159.903932 54.040349 
L 161.413953 293.484081 
L 162.923975 261.015715 
L 164.433996 293.492701 
L 165.944017 295.456541 
L 167.454038 292.728029 
L 168.964059 295.119803 
L 170.47408 63.708972 
L 171.984101 271.894906 
L 173.494123 291.049096 
L 175.004144 276.896169 
L 176.514165 293.166687 
L 178.024186 295.309516 
L 179.534207 294.135182 
L 181.044228 291.79543 
L 182.554249 293.532885 
L 184.064271 238.027989 
L 185.574292 294.747303 
L 187.084313 285.145045 
L 188.594334 282.2508 
L 190.104355 59.173039 
L 191.614376 161.692446 
L 193.124397 295.354861 
L 194.634419 295.338465 
L 196.14444 295.484457 
L 197.654461 272.586385 
L 199.164482 294.442878 
L 200.674503 294.563984 
L 203.694545 295.007745 
L 205.204567 286.828316 
L 206.714588 262.183185 
L 208.224609 89.21257 
L 211.244651 156.938196 
L 212.754672 216.825103 
L 214.264693 294.693118 
L 215.774715 57.341227 
L 217.284736 289.923682 
L 218.794757 295.482632 
L 220.304778 295.003066 
L 221.814799 285.810844 
L 223.32482 194.537443 
L 224.834841 295.46601 
L 226.344863 295.034044 
L 227.854884 293.026193 
L 229.364905 294.475267 
L 230.874926 294.261809 
L 232.384947 294.416258 
L 233.894968 295.03552 
L 235.404989 293.641229 
L 236.915011 256.887453 
L 238.425032 295.487844 
L 239.935053 295.482813 
L 241.445074 294.667437 
L 242.955095 287.412652 
L 244.465116 263.561091 
L 245.975137 147.91147 
L 247.485159 295.066716 
L 248.99518 126.803331 
L 250.505201 295.20234 
L 252.015222 290.384233 
L 253.525243 164.60824 
L 255.035264 294.709122 
L 256.545285 284.888537 
L 258.055307 264.519877 
L 259.565328 277.845957 
L 261.075349 277.845957 
L 262.58537 289.843969 
L 264.095391 283.162608 
L 265.605412 291.428134 
L 267.115433 283.026818 
L 268.625455 277.921633 
L 270.135476 286.095726 
L 271.645497 53.568 
L 273.155518 291.973489 
L 274.665539 294.943029 
L 276.17556 293.831925 
L 277.685581 295.44931 
L 279.195603 269.628757 
L 282.215645 295.156686 
L 283.725666 295.172078 
L 285.235687 295.320902 
L 286.745708 295.315931 
L 288.255729 295.170198 
L 289.765751 295.204146 
L 291.275772 288.931573 
L 292.785793 281.789119 
L 294.295814 294.73738 
L 295.805835 78.183696 
L 297.315856 126.439269 
L 298.825877 295.487971 
L 300.335899 295.323409 
L 301.84592 294.484955 
L 303.355941 268.255372 
L 304.865962 295.48793 
L 306.375983 139.949994 
L 307.886004 292.96288 
L 309.396025 294.607261 
L 310.906047 293.360973 
L 312.416068 95.463148 
L 313.926089 287.939361 
L 315.43611 96.969806 
L 316.946131 291.87447 
L 318.456152 277.492311 
L 319.966173 265.686965 
L 321.476195 70.498921 
L 322.986216 283.162608 
L 324.496237 85.08043 
L 326.006258 203.107407 
L 327.516279 120.960743 
L 329.0263 270.354355 
L 330.536321 218.854485 
L 332.046342 294.510274 
L 333.556364 272.586385 
L 335.066385 295.470214 
L 336.576406 287.566541 
L 338.086427 210.79054 
L 339.596448 260.859394 
L 341.106469 295.181648 
L 342.61649 295.48008 
L 344.126512 293.995549 
L 345.636533 295.454743 
L 348.656575 295.487782 
L 350.166596 292.202529 
L 351.676617 295.487991 
L 353.186638 291.119598 
L 354.69666 295.210732 
L 356.206681 286.985044 
L 357.716702 281.112148 
L 359.226723 151.574106 
L 360.736744 295.486653 
L 362.246765 294.954476 
L 363.756786 232.839306 
L 365.266808 150.024341 
L 366.776829 135.208817 
L 368.28685 295.484005 
L 369.796871 294.83289 
L 371.306892 294.704355 
L 372.816913 219.348915 
L 374.326934 288.194421 
L 375.836956 238.780125 
L 377.346977 295.163962 
L 378.856998 292.892594 
L 380.367019 285.021309 
L 381.87704 286.972149 
L 383.387061 295.238165 
L 384.897082 294.905135 
L 386.407104 294.378589 
L 387.917125 285.296152 
L 389.427146 295.429966 
L 390.937167 290.236953 
L 392.447188 278.709567 
L 393.957209 254.861287 
L 395.46723 294.666843 
L 396.977252 265.139763 
L 398.487273 275.146131 
L 398.487273 275.146131 
" style="fill:none;stroke:#1f77b4;stroke-linecap:square;stroke-width:1.5;"/>
   </g>
   <g id="line2d_17">
    <path clip-path="url(#pa71d8b56f6)" d="M 73.832727 53.568948 
L 76.85277 97.08906 
L 78.362791 116.923008 
L 79.872812 133.888503 
L 81.382833 126.019827 
L 82.892854 142.862607 
L 85.912896 171.355085 
L 87.422918 180.39339 
L 88.932939 191.889079 
L 90.44296 202.248829 
L 91.952981 211.40407 
L 93.463002 219.807292 
L 94.973023 227.369088 
L 96.483044 224.062921 
L 97.993066 231.19881 
L 99.503087 237.454202 
L 101.013108 243.200692 
L 102.523129 241.471491 
L 105.543171 251.549376 
L 107.053192 255.942021 
L 108.563214 259.896614 
L 113.093277 268.401765 
L 114.603298 270.976884 
L 116.113319 273.319507 
L 117.62334 275.087245 
L 119.133362 253.068076 
L 120.643383 242.432659 
L 122.153404 247.311491 
L 123.663425 228.391119 
L 125.173446 233.462546 
L 126.683467 239.519941 
L 128.193488 237.940512 
L 129.70351 243.69258 
L 131.213531 226.26597 
L 132.723552 210.998549 
L 134.233573 218.539429 
L 135.743594 221.684405 
L 137.253615 229.034299 
L 138.763636 235.679669 
L 140.273658 241.649288 
L 141.783679 247.018602 
L 143.2937 243.645042 
L 144.803721 243.079668 
L 146.313742 248.048139 
L 147.823763 233.383169 
L 149.333784 230.938925 
L 150.843805 227.235357 
L 152.353827 234.023835 
L 155.373869 245.013048 
L 156.88389 250.057438 
L 158.393911 254.332144 
L 159.903932 234.302965 
L 161.413953 240.221076 
L 162.923975 242.30054 
L 165.944017 252.223435 
L 168.964059 260.158485 
L 170.47408 240.513534 
L 171.984101 243.651671 
L 173.494123 248.391413 
L 175.004144 251.241889 
L 178.024186 259.421883 
L 179.534207 262.893213 
L 182.554249 268.55838 
L 184.064271 265.505341 
L 185.574292 268.429537 
L 187.084313 270.101088 
L 188.594334 271.316059 
L 190.104355 250.101757 
L 191.614376 241.260826 
L 193.124397 246.670229 
L 194.634419 251.537053 
L 196.14444 255.931793 
L 197.654461 257.597252 
L 199.164482 261.281815 
L 200.674503 264.610032 
L 202.184524 267.631657 
L 203.694545 270.369266 
L 205.204567 272.015171 
L 206.714588 271.031972 
L 208.224609 252.850032 
L 209.73463 239.835109 
L 211.244651 231.545418 
L 212.754672 230.073386 
L 214.264693 236.535359 
L 215.774715 218.615946 
L 218.794757 232.720311 
L 220.304778 238.948586 
L 221.814799 243.634812 
L 223.32482 238.725075 
L 224.834841 244.399169 
L 226.344863 249.462656 
L 229.364905 257.884636 
L 230.874926 261.522353 
L 232.384947 264.811744 
L 233.894968 267.834121 
L 235.404989 270.414832 
L 236.915011 269.062094 
L 238.425032 271.704669 
L 239.935053 274.082483 
L 241.445074 276.140979 
L 242.955095 277.268146 
L 244.465116 275.897441 
L 245.975137 263.098844 
L 247.485159 266.295631 
L 248.99518 252.346401 
L 250.505201 256.631995 
L 252.015222 260.007219 
L 253.525243 250.467321 
L 255.035264 254.891501 
L 256.545285 257.891205 
L 258.055307 258.554072 
L 259.565328 260.48326 
L 261.075349 262.21953 
L 262.58537 264.981974 
L 264.095391 266.800037 
L 265.605412 269.262847 
L 267.115433 270.639244 
L 268.625455 271.367483 
L 270.135476 272.840307 
L 271.645497 250.913077 
L 274.665539 259.011509 
L 277.685581 265.789127 
L 279.195603 266.17309 
L 280.705624 267.761967 
L 282.215645 270.501439 
L 283.725666 272.968502 
L 285.235687 275.203742 
L 286.745708 277.214961 
L 288.255729 279.010485 
L 289.765751 280.629851 
L 291.275772 281.460023 
L 292.785793 281.492933 
L 294.295814 282.817378 
L 295.805835 262.354009 
L 297.315856 248.762535 
L 298.825877 253.435079 
L 300.335899 257.623912 
L 301.84592 261.310016 
L 303.355941 262.004552 
L 304.865962 265.35289 
L 306.375983 252.8126 
L 309.396025 260.605591 
L 310.906047 263.881129 
L 312.416068 247.039331 
L 313.926089 251.129334 
L 315.43611 235.713381 
L 316.946131 241.32949 
L 318.456152 244.945772 
L 319.966173 247.019892 
L 321.476195 229.367795 
L 322.986216 234.747276 
L 324.496237 219.780591 
L 326.006258 218.113273 
L 327.516279 208.39802 
L 329.0263 214.593653 
L 330.536321 215.019737 
L 332.046342 222.96879 
L 333.556364 227.93055 
L 335.066385 234.684516 
L 336.576406 239.972719 
L 338.086427 237.054501 
L 339.596448 239.43499 
L 341.106469 245.009656 
L 342.61649 250.056698 
L 345.636533 258.550999 
L 347.146554 262.244699 
L 348.656575 265.569008 
L 351.676617 270.957923 
L 353.186638 272.97409 
L 354.69666 275.197755 
L 356.206681 276.376484 
L 357.716702 276.85005 
L 359.226723 264.322456 
L 360.736744 267.438875 
L 362.246765 270.190435 
L 363.756786 266.455323 
L 366.776829 242.851884 
L 368.28685 248.115096 
L 369.796871 252.786875 
L 371.306892 256.978623 
L 372.816913 253.215652 
L 374.326934 256.713529 
L 375.836956 254.920189 
L 377.346977 258.944566 
L 378.856998 262.339369 
L 381.87704 266.844022 
L 383.387061 269.683436 
L 384.897082 272.205606 
L 386.407104 274.422904 
L 387.917125 275.510229 
L 389.427146 277.502203 
L 390.937167 278.775678 
L 392.447188 278.769067 
L 393.957209 276.378289 
L 395.46723 278.207144 
L 396.977252 276.900406 
L 398.487273 276.724979 
L 398.487273 276.724979 
" style="fill:none;stroke:#ff7f0e;stroke-linecap:square;stroke-width:1.5;"/>
   </g>
   <g id="patch_8">
    <path d="M 57.6 307.584 
L 57.6 41.472 
" style="fill:none;stroke:#000000;stroke-linecap:square;stroke-linejoin:miter;stroke-width:0.8;"/>
   </g>
   <g id="patch_9">
    <path d="M 414.72 307.584 
L 414.72 41.472 
" style="fill:none;stroke:#000000;stroke-linecap:square;stroke-linejoin:miter;stroke-width:0.8;"/>
   </g>
   <g id="patch_10">
    <path d="M 57.6 307.584 
L 414.72 307.584 
" style="fill:none;stroke:#000000;stroke-linecap:square;stroke-linejoin:miter;stroke-width:0.8;"/>
   </g>
   <g id="patch_11">
    <path d="M 57.6 41.472 
L 414.72 41.472 
" style="fill:none;stroke:#000000;stroke-linecap:square;stroke-linejoin:miter;stroke-width:0.8;"/>
   </g>
  </g>
 </g>
 <defs>
  <clipPath id="pa71d8b56f6">
   <rect height="266.112" width="357.12" x="57.6" y="41.472"/>
  </clipPath>
 </defs>
</svg>
