<?xml version="1.0" encoding="utf-8" standalone="no"?>
<!DOCTYPE svg PUBLIC "-//W3C//DTD SVG 1.1//EN"
  "http://www.w3.org/Graphics/SVG/1.1/DTD/svg11.dtd">
<svg height="345.6pt" version="1.1" viewBox="0 0 460.8 345.6" width="460.8pt" xmlns="http://www.w3.org/2000/svg" xmlns:xlink="http://www.w3.org/1999/xlink">
 <metadata>
  <rdf:RDF xmlns:cc="http://creativecommons.org/ns#" xmlns:dc="http://purl.org/dc/elements/1.1/" xmlns:rdf="http://www.w3.org/1999/02/22-rdf-syntax-ns#">
   <cc:Work>
    <dc:type rdf:resource="http://purl.org/dc/dcmitype/StillImage"/>
    <dc:date>2021-10-03T02:36:28.445328</dc:date>
    <dc:format>image/svg+xml</dc:format>
    <dc:creator>
     <cc:Agent>
      <dc:title>Matplotlib v3.4.3, https://matplotlib.org/</dc:title>
     </cc:Agent>
    </dc:creator>
   </cc:Work>
  </rdf:RDF>
 </metadata>
 <defs>
  <style type="text/css">*{stroke-linecap:butt;stroke-linejoin:round;}</style>
 </defs>
 <g id="figure_1">
  <g id="patch_1">
   <path d="M 0 345.6 
L 460.8 345.6 
L 460.8 0 
L 0 0 
z
" style="fill:#ffffff;"/>
  </g>
  <g id="axes_1">
   <g id="patch_2">
    <path d="M 57.6 307.584 
L 414.72 307.584 
L 414.72 41.472 
L 57.6 41.472 
z
" style="fill:#ffffff;"/>
   </g>
   <g id="matplotlib.axis_1">
    <g id="xtick_1">
     <g id="line2d_1">
      <defs>
       <path d="M 0 0 
L 0 3.5 
" id="m5beadbb424" style="stroke:#000000;stroke-width:0.8;"/>
      </defs>
      <g>
       <use style="stroke:#000000;stroke-width:0.8;" x="57.6" xlink:href="#m5beadbb424" y="307.584"/>
      </g>
     </g>
     <g id="text_1">
      <!-- 0 -->
      <g transform="translate(54.41875 322.182437)scale(0.1 -0.1)">
       <defs>
        <path d="M 2034 4250 
Q 1547 4250 1301 3770 
Q 1056 3291 1056 2328 
Q 1056 1369 1301 889 
Q 1547 409 2034 409 
Q 2525 409 2770 889 
Q 3016 1369 3016 2328 
Q 3016 3291 2770 3770 
Q 2525 4250 2034 4250 
z
M 2034 4750 
Q 2819 4750 3233 4129 
Q 3647 3509 3647 2328 
Q 3647 1150 3233 529 
Q 2819 -91 2034 -91 
Q 1250 -91 836 529 
Q 422 1150 422 2328 
Q 422 3509 836 4129 
Q 1250 4750 2034 4750 
z
" id="DejaVuSans-30" transform="scale(0.015625)"/>
       </defs>
       <use xlink:href="#DejaVuSans-30"/>
      </g>
     </g>
    </g>
    <g id="xtick_2">
     <g id="line2d_2">
      <g>
       <use style="stroke:#000000;stroke-width:0.8;" x="98.933333" xlink:href="#m5beadbb424" y="307.584"/>
      </g>
     </g>
     <g id="text_2">
      <!-- 25 -->
      <g transform="translate(92.570833 322.182437)scale(0.1 -0.1)">
       <defs>
        <path d="M 1228 531 
L 3431 531 
L 3431 0 
L 469 0 
L 469 531 
Q 828 903 1448 1529 
Q 2069 2156 2228 2338 
Q 2531 2678 2651 2914 
Q 2772 3150 2772 3378 
Q 2772 3750 2511 3984 
Q 2250 4219 1831 4219 
Q 1534 4219 1204 4116 
Q 875 4013 500 3803 
L 500 4441 
Q 881 4594 1212 4672 
Q 1544 4750 1819 4750 
Q 2544 4750 2975 4387 
Q 3406 4025 3406 3419 
Q 3406 3131 3298 2873 
Q 3191 2616 2906 2266 
Q 2828 2175 2409 1742 
Q 1991 1309 1228 531 
z
" id="DejaVuSans-32" transform="scale(0.015625)"/>
        <path d="M 691 4666 
L 3169 4666 
L 3169 4134 
L 1269 4134 
L 1269 2991 
Q 1406 3038 1543 3061 
Q 1681 3084 1819 3084 
Q 2600 3084 3056 2656 
Q 3513 2228 3513 1497 
Q 3513 744 3044 326 
Q 2575 -91 1722 -91 
Q 1428 -91 1123 -41 
Q 819 9 494 109 
L 494 744 
Q 775 591 1075 516 
Q 1375 441 1709 441 
Q 2250 441 2565 725 
Q 2881 1009 2881 1497 
Q 2881 1984 2565 2268 
Q 2250 2553 1709 2553 
Q 1456 2553 1204 2497 
Q 953 2441 691 2322 
L 691 4666 
z
" id="DejaVuSans-35" transform="scale(0.015625)"/>
       </defs>
       <use xlink:href="#DejaVuSans-32"/>
       <use x="63.623047" xlink:href="#DejaVuSans-35"/>
      </g>
     </g>
    </g>
    <g id="xtick_3">
     <g id="line2d_3">
      <g>
       <use style="stroke:#000000;stroke-width:0.8;" x="140.266667" xlink:href="#m5beadbb424" y="307.584"/>
      </g>
     </g>
     <g id="text_3">
      <!-- 50 -->
      <g transform="translate(133.904167 322.182437)scale(0.1 -0.1)">
       <use xlink:href="#DejaVuSans-35"/>
       <use x="63.623047" xlink:href="#DejaVuSans-30"/>
      </g>
     </g>
    </g>
    <g id="xtick_4">
     <g id="line2d_4">
      <g>
       <use style="stroke:#000000;stroke-width:0.8;" x="181.6" xlink:href="#m5beadbb424" y="307.584"/>
      </g>
     </g>
     <g id="text_4">
      <!-- 75 -->
      <g transform="translate(175.2375 322.182437)scale(0.1 -0.1)">
       <defs>
        <path d="M 525 4666 
L 3525 4666 
L 3525 4397 
L 1831 0 
L 1172 0 
L 2766 4134 
L 525 4134 
L 525 4666 
z
" id="DejaVuSans-37" transform="scale(0.015625)"/>
       </defs>
       <use xlink:href="#DejaVuSans-37"/>
       <use x="63.623047" xlink:href="#DejaVuSans-35"/>
      </g>
     </g>
    </g>
    <g id="xtick_5">
     <g id="line2d_5">
      <g>
       <use style="stroke:#000000;stroke-width:0.8;" x="222.933333" xlink:href="#m5beadbb424" y="307.584"/>
      </g>
     </g>
     <g id="text_5">
      <!-- 100 -->
      <g transform="translate(213.389583 322.182437)scale(0.1 -0.1)">
       <defs>
        <path d="M 794 531 
L 1825 531 
L 1825 4091 
L 703 3866 
L 703 4441 
L 1819 4666 
L 2450 4666 
L 2450 531 
L 3481 531 
L 3481 0 
L 794 0 
L 794 531 
z
" id="DejaVuSans-31" transform="scale(0.015625)"/>
       </defs>
       <use xlink:href="#DejaVuSans-31"/>
       <use x="63.623047" xlink:href="#DejaVuSans-30"/>
       <use x="127.246094" xlink:href="#DejaVuSans-30"/>
      </g>
     </g>
    </g>
    <g id="xtick_6">
     <g id="line2d_6">
      <g>
       <use style="stroke:#000000;stroke-width:0.8;" x="264.266667" xlink:href="#m5beadbb424" y="307.584"/>
      </g>
     </g>
     <g id="text_6">
      <!-- 125 -->
      <g transform="translate(254.722917 322.182437)scale(0.1 -0.1)">
       <use xlink:href="#DejaVuSans-31"/>
       <use x="63.623047" xlink:href="#DejaVuSans-32"/>
       <use x="127.246094" xlink:href="#DejaVuSans-35"/>
      </g>
     </g>
    </g>
    <g id="xtick_7">
     <g id="line2d_7">
      <g>
       <use style="stroke:#000000;stroke-width:0.8;" x="305.6" xlink:href="#m5beadbb424" y="307.584"/>
      </g>
     </g>
     <g id="text_7">
      <!-- 150 -->
      <g transform="translate(296.05625 322.182437)scale(0.1 -0.1)">
       <use xlink:href="#DejaVuSans-31"/>
       <use x="63.623047" xlink:href="#DejaVuSans-35"/>
       <use x="127.246094" xlink:href="#DejaVuSans-30"/>
      </g>
     </g>
    </g>
    <g id="xtick_8">
     <g id="line2d_8">
      <g>
       <use style="stroke:#000000;stroke-width:0.8;" x="346.933333" xlink:href="#m5beadbb424" y="307.584"/>
      </g>
     </g>
     <g id="text_8">
      <!-- 175 -->
      <g transform="translate(337.389583 322.182437)scale(0.1 -0.1)">
       <use xlink:href="#DejaVuSans-31"/>
       <use x="63.623047" xlink:href="#DejaVuSans-37"/>
       <use x="127.246094" xlink:href="#DejaVuSans-35"/>
      </g>
     </g>
    </g>
    <g id="xtick_9">
     <g id="line2d_9">
      <g>
       <use style="stroke:#000000;stroke-width:0.8;" x="388.266667" xlink:href="#m5beadbb424" y="307.584"/>
      </g>
     </g>
     <g id="text_9">
      <!-- 200 -->
      <g transform="translate(378.722917 322.182437)scale(0.1 -0.1)">
       <use xlink:href="#DejaVuSans-32"/>
       <use x="63.623047" xlink:href="#DejaVuSans-30"/>
       <use x="127.246094" xlink:href="#DejaVuSans-30"/>
      </g>
     </g>
    </g>
    <g id="text_10">
     <!-- sentence -->
     <g transform="translate(213.27875 335.860562)scale(0.1 -0.1)">
      <defs>
       <path d="M 2834 3397 
L 2834 2853 
Q 2591 2978 2328 3040 
Q 2066 3103 1784 3103 
Q 1356 3103 1142 2972 
Q 928 2841 928 2578 
Q 928 2378 1081 2264 
Q 1234 2150 1697 2047 
L 1894 2003 
Q 2506 1872 2764 1633 
Q 3022 1394 3022 966 
Q 3022 478 2636 193 
Q 2250 -91 1575 -91 
Q 1294 -91 989 -36 
Q 684 19 347 128 
L 347 722 
Q 666 556 975 473 
Q 1284 391 1588 391 
Q 1994 391 2212 530 
Q 2431 669 2431 922 
Q 2431 1156 2273 1281 
Q 2116 1406 1581 1522 
L 1381 1569 
Q 847 1681 609 1914 
Q 372 2147 372 2553 
Q 372 3047 722 3315 
Q 1072 3584 1716 3584 
Q 2034 3584 2315 3537 
Q 2597 3491 2834 3397 
z
" id="DejaVuSans-73" transform="scale(0.015625)"/>
       <path d="M 3597 1894 
L 3597 1613 
L 953 1613 
Q 991 1019 1311 708 
Q 1631 397 2203 397 
Q 2534 397 2845 478 
Q 3156 559 3463 722 
L 3463 178 
Q 3153 47 2828 -22 
Q 2503 -91 2169 -91 
Q 1331 -91 842 396 
Q 353 884 353 1716 
Q 353 2575 817 3079 
Q 1281 3584 2069 3584 
Q 2775 3584 3186 3129 
Q 3597 2675 3597 1894 
z
M 3022 2063 
Q 3016 2534 2758 2815 
Q 2500 3097 2075 3097 
Q 1594 3097 1305 2825 
Q 1016 2553 972 2059 
L 3022 2063 
z
" id="DejaVuSans-65" transform="scale(0.015625)"/>
       <path d="M 3513 2113 
L 3513 0 
L 2938 0 
L 2938 2094 
Q 2938 2591 2744 2837 
Q 2550 3084 2163 3084 
Q 1697 3084 1428 2787 
Q 1159 2491 1159 1978 
L 1159 0 
L 581 0 
L 581 3500 
L 1159 3500 
L 1159 2956 
Q 1366 3272 1645 3428 
Q 1925 3584 2291 3584 
Q 2894 3584 3203 3211 
Q 3513 2838 3513 2113 
z
" id="DejaVuSans-6e" transform="scale(0.015625)"/>
       <path d="M 1172 4494 
L 1172 3500 
L 2356 3500 
L 2356 3053 
L 1172 3053 
L 1172 1153 
Q 1172 725 1289 603 
Q 1406 481 1766 481 
L 2356 481 
L 2356 0 
L 1766 0 
Q 1100 0 847 248 
Q 594 497 594 1153 
L 594 3053 
L 172 3053 
L 172 3500 
L 594 3500 
L 594 4494 
L 1172 4494 
z
" id="DejaVuSans-74" transform="scale(0.015625)"/>
       <path d="M 3122 3366 
L 3122 2828 
Q 2878 2963 2633 3030 
Q 2388 3097 2138 3097 
Q 1578 3097 1268 2742 
Q 959 2388 959 1747 
Q 959 1106 1268 751 
Q 1578 397 2138 397 
Q 2388 397 2633 464 
Q 2878 531 3122 666 
L 3122 134 
Q 2881 22 2623 -34 
Q 2366 -91 2075 -91 
Q 1284 -91 818 406 
Q 353 903 353 1747 
Q 353 2603 823 3093 
Q 1294 3584 2113 3584 
Q 2378 3584 2631 3529 
Q 2884 3475 3122 3366 
z
" id="DejaVuSans-63" transform="scale(0.015625)"/>
      </defs>
      <use xlink:href="#DejaVuSans-73"/>
      <use x="52.099609" xlink:href="#DejaVuSans-65"/>
      <use x="113.623047" xlink:href="#DejaVuSans-6e"/>
      <use x="177.001953" xlink:href="#DejaVuSans-74"/>
      <use x="216.210938" xlink:href="#DejaVuSans-65"/>
      <use x="277.734375" xlink:href="#DejaVuSans-6e"/>
      <use x="341.113281" xlink:href="#DejaVuSans-63"/>
      <use x="396.09375" xlink:href="#DejaVuSans-65"/>
     </g>
    </g>
   </g>
   <g id="matplotlib.axis_2">
    <g id="ytick_1">
     <g id="line2d_10">
      <defs>
       <path d="M 0 0 
L -3.5 0 
" id="m61a59ed86f" style="stroke:#000000;stroke-width:0.8;"/>
      </defs>
      <g>
       <use style="stroke:#000000;stroke-width:0.8;" x="57.6" xlink:href="#m61a59ed86f" y="307.584"/>
      </g>
     </g>
     <g id="text_11">
      <!-- 0 -->
      <g transform="translate(44.2375 311.383219)scale(0.1 -0.1)">
       <use xlink:href="#DejaVuSans-30"/>
      </g>
     </g>
    </g>
    <g id="ytick_2">
     <g id="line2d_11">
      <g>
       <use style="stroke:#000000;stroke-width:0.8;" x="57.6" xlink:href="#m61a59ed86f" y="254.3616"/>
      </g>
     </g>
     <g id="text_12">
      <!-- 20 -->
      <g transform="translate(37.875 258.160819)scale(0.1 -0.1)">
       <use xlink:href="#DejaVuSans-32"/>
       <use x="63.623047" xlink:href="#DejaVuSans-30"/>
      </g>
     </g>
    </g>
    <g id="ytick_3">
     <g id="line2d_12">
      <g>
       <use style="stroke:#000000;stroke-width:0.8;" x="57.6" xlink:href="#m61a59ed86f" y="201.1392"/>
      </g>
     </g>
     <g id="text_13">
      <!-- 40 -->
      <g transform="translate(37.875 204.938419)scale(0.1 -0.1)">
       <defs>
        <path d="M 2419 4116 
L 825 1625 
L 2419 1625 
L 2419 4116 
z
M 2253 4666 
L 3047 4666 
L 3047 1625 
L 3713 1625 
L 3713 1100 
L 3047 1100 
L 3047 0 
L 2419 0 
L 2419 1100 
L 313 1100 
L 313 1709 
L 2253 4666 
z
" id="DejaVuSans-34" transform="scale(0.015625)"/>
       </defs>
       <use xlink:href="#DejaVuSans-34"/>
       <use x="63.623047" xlink:href="#DejaVuSans-30"/>
      </g>
     </g>
    </g>
    <g id="ytick_4">
     <g id="line2d_13">
      <g>
       <use style="stroke:#000000;stroke-width:0.8;" x="57.6" xlink:href="#m61a59ed86f" y="147.9168"/>
      </g>
     </g>
     <g id="text_14">
      <!-- 60 -->
      <g transform="translate(37.875 151.716019)scale(0.1 -0.1)">
       <defs>
        <path d="M 2113 2584 
Q 1688 2584 1439 2293 
Q 1191 2003 1191 1497 
Q 1191 994 1439 701 
Q 1688 409 2113 409 
Q 2538 409 2786 701 
Q 3034 994 3034 1497 
Q 3034 2003 2786 2293 
Q 2538 2584 2113 2584 
z
M 3366 4563 
L 3366 3988 
Q 3128 4100 2886 4159 
Q 2644 4219 2406 4219 
Q 1781 4219 1451 3797 
Q 1122 3375 1075 2522 
Q 1259 2794 1537 2939 
Q 1816 3084 2150 3084 
Q 2853 3084 3261 2657 
Q 3669 2231 3669 1497 
Q 3669 778 3244 343 
Q 2819 -91 2113 -91 
Q 1303 -91 875 529 
Q 447 1150 447 2328 
Q 447 3434 972 4092 
Q 1497 4750 2381 4750 
Q 2619 4750 2861 4703 
Q 3103 4656 3366 4563 
z
" id="DejaVuSans-36" transform="scale(0.015625)"/>
       </defs>
       <use xlink:href="#DejaVuSans-36"/>
       <use x="63.623047" xlink:href="#DejaVuSans-30"/>
      </g>
     </g>
    </g>
    <g id="ytick_5">
     <g id="line2d_14">
      <g>
       <use style="stroke:#000000;stroke-width:0.8;" x="57.6" xlink:href="#m61a59ed86f" y="94.6944"/>
      </g>
     </g>
     <g id="text_15">
      <!-- 80 -->
      <g transform="translate(37.875 98.493619)scale(0.1 -0.1)">
       <defs>
        <path d="M 2034 2216 
Q 1584 2216 1326 1975 
Q 1069 1734 1069 1313 
Q 1069 891 1326 650 
Q 1584 409 2034 409 
Q 2484 409 2743 651 
Q 3003 894 3003 1313 
Q 3003 1734 2745 1975 
Q 2488 2216 2034 2216 
z
M 1403 2484 
Q 997 2584 770 2862 
Q 544 3141 544 3541 
Q 544 4100 942 4425 
Q 1341 4750 2034 4750 
Q 2731 4750 3128 4425 
Q 3525 4100 3525 3541 
Q 3525 3141 3298 2862 
Q 3072 2584 2669 2484 
Q 3125 2378 3379 2068 
Q 3634 1759 3634 1313 
Q 3634 634 3220 271 
Q 2806 -91 2034 -91 
Q 1263 -91 848 271 
Q 434 634 434 1313 
Q 434 1759 690 2068 
Q 947 2378 1403 2484 
z
M 1172 3481 
Q 1172 3119 1398 2916 
Q 1625 2713 2034 2713 
Q 2441 2713 2670 2916 
Q 2900 3119 2900 3481 
Q 2900 3844 2670 4047 
Q 2441 4250 2034 4250 
Q 1625 4250 1398 4047 
Q 1172 3844 1172 3481 
z
" id="DejaVuSans-38" transform="scale(0.015625)"/>
       </defs>
       <use xlink:href="#DejaVuSans-38"/>
       <use x="63.623047" xlink:href="#DejaVuSans-30"/>
      </g>
     </g>
    </g>
    <g id="ytick_6">
     <g id="line2d_15">
      <g>
       <use style="stroke:#000000;stroke-width:0.8;" x="57.6" xlink:href="#m61a59ed86f" y="41.472"/>
      </g>
     </g>
     <g id="text_16">
      <!-- 100 -->
      <g transform="translate(31.5125 45.271219)scale(0.1 -0.1)">
       <use xlink:href="#DejaVuSans-31"/>
       <use x="63.623047" xlink:href="#DejaVuSans-30"/>
       <use x="127.246094" xlink:href="#DejaVuSans-30"/>
      </g>
     </g>
    </g>
    <g id="text_17">
     <!-- sexism score -->
     <g transform="translate(25.432812 206.967062)rotate(-90)scale(0.1 -0.1)">
      <defs>
       <path d="M 3513 3500 
L 2247 1797 
L 3578 0 
L 2900 0 
L 1881 1375 
L 863 0 
L 184 0 
L 1544 1831 
L 300 3500 
L 978 3500 
L 1906 2253 
L 2834 3500 
L 3513 3500 
z
" id="DejaVuSans-78" transform="scale(0.015625)"/>
       <path d="M 603 3500 
L 1178 3500 
L 1178 0 
L 603 0 
L 603 3500 
z
M 603 4863 
L 1178 4863 
L 1178 4134 
L 603 4134 
L 603 4863 
z
" id="DejaVuSans-69" transform="scale(0.015625)"/>
       <path d="M 3328 2828 
Q 3544 3216 3844 3400 
Q 4144 3584 4550 3584 
Q 5097 3584 5394 3201 
Q 5691 2819 5691 2113 
L 5691 0 
L 5113 0 
L 5113 2094 
Q 5113 2597 4934 2840 
Q 4756 3084 4391 3084 
Q 3944 3084 3684 2787 
Q 3425 2491 3425 1978 
L 3425 0 
L 2847 0 
L 2847 2094 
Q 2847 2600 2669 2842 
Q 2491 3084 2119 3084 
Q 1678 3084 1418 2786 
Q 1159 2488 1159 1978 
L 1159 0 
L 581 0 
L 581 3500 
L 1159 3500 
L 1159 2956 
Q 1356 3278 1631 3431 
Q 1906 3584 2284 3584 
Q 2666 3584 2933 3390 
Q 3200 3197 3328 2828 
z
" id="DejaVuSans-6d" transform="scale(0.015625)"/>
       <path id="DejaVuSans-20" transform="scale(0.015625)"/>
       <path d="M 1959 3097 
Q 1497 3097 1228 2736 
Q 959 2375 959 1747 
Q 959 1119 1226 758 
Q 1494 397 1959 397 
Q 2419 397 2687 759 
Q 2956 1122 2956 1747 
Q 2956 2369 2687 2733 
Q 2419 3097 1959 3097 
z
M 1959 3584 
Q 2709 3584 3137 3096 
Q 3566 2609 3566 1747 
Q 3566 888 3137 398 
Q 2709 -91 1959 -91 
Q 1206 -91 779 398 
Q 353 888 353 1747 
Q 353 2609 779 3096 
Q 1206 3584 1959 3584 
z
" id="DejaVuSans-6f" transform="scale(0.015625)"/>
       <path d="M 2631 2963 
Q 2534 3019 2420 3045 
Q 2306 3072 2169 3072 
Q 1681 3072 1420 2755 
Q 1159 2438 1159 1844 
L 1159 0 
L 581 0 
L 581 3500 
L 1159 3500 
L 1159 2956 
Q 1341 3275 1631 3429 
Q 1922 3584 2338 3584 
Q 2397 3584 2469 3576 
Q 2541 3569 2628 3553 
L 2631 2963 
z
" id="DejaVuSans-72" transform="scale(0.015625)"/>
      </defs>
      <use xlink:href="#DejaVuSans-73"/>
      <use x="52.099609" xlink:href="#DejaVuSans-65"/>
      <use x="111.873047" xlink:href="#DejaVuSans-78"/>
      <use x="171.052734" xlink:href="#DejaVuSans-69"/>
      <use x="198.835938" xlink:href="#DejaVuSans-73"/>
      <use x="250.935547" xlink:href="#DejaVuSans-6d"/>
      <use x="348.347656" xlink:href="#DejaVuSans-20"/>
      <use x="380.134766" xlink:href="#DejaVuSans-73"/>
      <use x="432.234375" xlink:href="#DejaVuSans-63"/>
      <use x="487.214844" xlink:href="#DejaVuSans-6f"/>
      <use x="548.396484" xlink:href="#DejaVuSans-72"/>
      <use x="587.259766" xlink:href="#DejaVuSans-65"/>
     </g>
    </g>
   </g>
   <g id="patch_3">
    <path d="M 57.6 307.584 
L 57.6 41.472 
" style="fill:none;stroke:#000000;stroke-linecap:square;stroke-linejoin:miter;stroke-width:0.8;"/>
   </g>
   <g id="patch_4">
    <path d="M 414.72 307.584 
L 414.72 41.472 
" style="fill:none;stroke:#000000;stroke-linecap:square;stroke-linejoin:miter;stroke-width:0.8;"/>
   </g>
   <g id="patch_5">
    <path d="M 57.6 307.584 
L 414.72 307.584 
" style="fill:none;stroke:#000000;stroke-linecap:square;stroke-linejoin:miter;stroke-width:0.8;"/>
   </g>
   <g id="patch_6">
    <path d="M 57.6 41.472 
L 414.72 41.472 
" style="fill:none;stroke:#000000;stroke-linecap:square;stroke-linejoin:miter;stroke-width:0.8;"/>
   </g>
   <g id="text_18">
    <!-- Sexism Scores Timeline -->
    <g transform="translate(165.325312 35.472)scale(0.12 -0.12)">
     <defs>
      <path d="M 3425 4513 
L 3425 3897 
Q 3066 4069 2747 4153 
Q 2428 4238 2131 4238 
Q 1616 4238 1336 4038 
Q 1056 3838 1056 3469 
Q 1056 3159 1242 3001 
Q 1428 2844 1947 2747 
L 2328 2669 
Q 3034 2534 3370 2195 
Q 3706 1856 3706 1288 
Q 3706 609 3251 259 
Q 2797 -91 1919 -91 
Q 1588 -91 1214 -16 
Q 841 59 441 206 
L 441 856 
Q 825 641 1194 531 
Q 1563 422 1919 422 
Q 2459 422 2753 634 
Q 3047 847 3047 1241 
Q 3047 1584 2836 1778 
Q 2625 1972 2144 2069 
L 1759 2144 
Q 1053 2284 737 2584 
Q 422 2884 422 3419 
Q 422 4038 858 4394 
Q 1294 4750 2059 4750 
Q 2388 4750 2728 4690 
Q 3069 4631 3425 4513 
z
" id="DejaVuSans-53" transform="scale(0.015625)"/>
      <path d="M -19 4666 
L 3928 4666 
L 3928 4134 
L 2272 4134 
L 2272 0 
L 1638 0 
L 1638 4134 
L -19 4134 
L -19 4666 
z
" id="DejaVuSans-54" transform="scale(0.015625)"/>
      <path d="M 603 4863 
L 1178 4863 
L 1178 0 
L 603 0 
L 603 4863 
z
" id="DejaVuSans-6c" transform="scale(0.015625)"/>
     </defs>
     <use xlink:href="#DejaVuSans-53"/>
     <use x="63.476562" xlink:href="#DejaVuSans-65"/>
     <use x="123.25" xlink:href="#DejaVuSans-78"/>
     <use x="182.429688" xlink:href="#DejaVuSans-69"/>
     <use x="210.212891" xlink:href="#DejaVuSans-73"/>
     <use x="262.3125" xlink:href="#DejaVuSans-6d"/>
     <use x="359.724609" xlink:href="#DejaVuSans-20"/>
     <use x="391.511719" xlink:href="#DejaVuSans-53"/>
     <use x="454.988281" xlink:href="#DejaVuSans-63"/>
     <use x="509.96875" xlink:href="#DejaVuSans-6f"/>
     <use x="571.150391" xlink:href="#DejaVuSans-72"/>
     <use x="610.013672" xlink:href="#DejaVuSans-65"/>
     <use x="671.537109" xlink:href="#DejaVuSans-73"/>
     <use x="723.636719" xlink:href="#DejaVuSans-20"/>
     <use x="755.423828" xlink:href="#DejaVuSans-54"/>
     <use x="813.382812" xlink:href="#DejaVuSans-69"/>
     <use x="841.166016" xlink:href="#DejaVuSans-6d"/>
     <use x="938.578125" xlink:href="#DejaVuSans-65"/>
     <use x="1000.101562" xlink:href="#DejaVuSans-6c"/>
     <use x="1027.884766" xlink:href="#DejaVuSans-69"/>
     <use x="1055.667969" xlink:href="#DejaVuSans-6e"/>
     <use x="1119.046875" xlink:href="#DejaVuSans-65"/>
    </g>
   </g>
  </g>
  <g id="axes_2">
   <g id="patch_7">
    <path d="M 57.6 307.584 
L 414.72 307.584 
L 414.72 41.472 
L 57.6 41.472 
z
" style="fill:#ffffff;"/>
   </g>
   <g id="matplotlib.axis_3"/>
   <g id="matplotlib.axis_4"/>
   <g id="line2d_16">
    <path clip-path="url(#pe10c7807c4)" d="M 73.832727 295.486989 
L 75.342748 179.679006 
L 76.85277 201.963046 
L 78.362791 294.258901 
L 79.872812 236.548308 
L 81.382833 295.431172 
L 82.892854 158.613812 
L 84.402875 295.365739 
L 85.912896 282.760168 
L 87.422918 170.534838 
L 88.932939 254.651377 
L 90.44296 295.485864 
L 91.952981 295.375024 
L 93.463002 292.171359 
L 94.973023 253.119033 
L 96.483044 276.843095 
L 97.993066 290.861759 
L 99.503087 75.921666 
L 101.013108 294.323521 
L 102.523129 285.347776 
L 104.03315 283.045776 
L 105.543171 295.391718 
L 107.053192 294.000556 
L 108.563214 295.487308 
L 110.073235 275.937266 
L 111.583256 275.668382 
L 113.093277 258.676432 
L 114.603298 274.280676 
L 116.113319 271.037244 
L 117.62334 295.031523 
L 119.133362 294.955143 
L 120.643383 241.862735 
L 122.153404 287.96787 
L 123.663425 294.545906 
L 125.173446 83.567413 
L 126.683467 253.368556 
L 128.193488 155.582712 
L 129.70351 180.915288 
L 131.213531 281.118832 
L 132.723552 276.484489 
L 135.743594 196.528471 
L 137.253615 289.054946 
L 138.763636 56.262671 
L 140.273658 230.664531 
L 141.783679 200.849811 
L 143.2937 226.513965 
L 146.313742 110.538708 
L 147.823763 268.980663 
L 149.333784 193.334214 
L 150.843805 224.785291 
L 152.353827 292.251294 
L 153.863848 242.695686 
L 155.373869 176.755626 
L 156.88389 291.824146 
L 158.393911 265.16226 
L 159.903932 295.215117 
L 161.413953 231.821948 
L 162.923975 163.28374 
L 164.433996 289.629245 
L 165.944017 84.698963 
L 167.454038 59.508072 
L 168.964059 273.154243 
L 170.47408 285.048171 
L 171.984101 235.347373 
L 173.494123 195.291855 
L 175.004144 290.263704 
L 176.514165 295.271021 
L 178.024186 282.281269 
L 179.534207 288.915698 
L 181.044228 276.181614 
L 182.554249 93.255363 
L 184.064271 284.592002 
L 185.574292 244.87165 
L 187.084313 211.322144 
L 188.594334 102.282543 
L 190.104355 295.447282 
L 191.614376 280.358261 
L 193.124397 285.693907 
L 194.634419 210.955106 
L 196.14444 291.359385 
L 197.654461 185.351553 
L 199.164482 246.086453 
L 200.674503 247.531727 
L 202.184524 223.3434 
L 203.694545 128.3814 
L 205.204567 94.715271 
L 206.714588 158.268013 
L 208.224609 289.283099 
L 209.73463 269.115093 
L 211.244651 204.052868 
L 212.754672 154.373219 
L 214.264693 190.45328 
L 215.774715 295.454333 
L 217.284736 287.50503 
L 218.794757 294.684659 
L 220.304778 242.992579 
L 221.814799 221.723588 
L 223.32482 280.114236 
L 224.834841 164.154059 
L 226.344863 293.715583 
L 227.854884 294.361709 
L 229.364905 258.937307 
L 230.874926 272.266975 
L 232.384947 260.140609 
L 233.894968 277.974984 
L 235.404989 166.325556 
L 236.915011 292.278367 
L 238.425032 295.010848 
L 239.935053 256.367324 
L 241.445074 213.714559 
L 242.955095 111.962832 
L 244.465116 111.211203 
L 245.975137 294.825151 
L 247.485159 256.210678 
L 248.99518 227.759199 
L 250.505201 285.355328 
L 252.015222 288.772267 
L 253.525243 263.26537 
L 255.035264 190.381344 
L 256.545285 203.273032 
L 258.055307 160.77719 
L 259.565328 142.002826 
L 261.075349 142.002826 
L 262.58537 66.341225 
L 264.095391 170.385753 
L 265.605412 219.529253 
L 267.115433 288.131327 
L 268.625455 146.518771 
L 270.135476 101.296432 
L 271.645497 295.488 
L 273.155518 75.355424 
L 274.665539 286.512737 
L 276.17556 204.504702 
L 277.685581 293.701511 
L 279.195603 70.492491 
L 280.705624 269.579959 
L 282.215645 226.456016 
L 283.725666 274.295617 
L 285.235687 294.931228 
L 286.745708 149.905481 
L 288.255729 285.359188 
L 289.765751 278.26127 
L 291.275772 293.340551 
L 292.785793 295.300565 
L 294.295814 257.036099 
L 295.805835 295.32959 
L 297.315856 260.632116 
L 298.825877 295.465141 
L 300.335899 294.320117 
L 301.84592 295.4823 
L 304.865962 295.23704 
L 306.375983 294.842291 
L 307.886004 275.441701 
L 309.396025 267.707425 
L 310.906047 288.924882 
L 312.416068 259.229724 
L 313.926089 293.559545 
L 315.43611 285.71549 
L 316.946131 216.894011 
L 318.456152 273.579364 
L 319.966173 102.268972 
L 321.476195 284.865604 
L 322.986216 170.385753 
L 324.496237 264.263724 
L 326.006258 192.523204 
L 327.516279 251.47669 
L 329.0263 194.666672 
L 330.536321 241.65375 
L 332.046342 275.45443 
L 333.556364 185.351553 
L 335.066385 295.109856 
L 336.576406 229.565202 
L 338.086427 287.880084 
L 339.596448 292.723755 
L 341.106469 291.341508 
L 342.61649 295.404929 
L 344.126512 292.551189 
L 345.636533 295.123518 
L 347.146554 280.356389 
L 348.656575 295.298537 
L 350.166596 259.610372 
L 351.676617 53.568 
L 353.186638 294.940741 
L 354.69666 287.058318 
L 356.206681 200.268807 
L 357.716702 135.952312 
L 359.226723 229.239598 
L 360.736744 162.623853 
L 362.246765 236.053453 
L 363.756786 260.397023 
L 365.266808 256.054359 
L 366.776829 240.295386 
L 368.28685 294.962982 
L 369.796871 286.220544 
L 371.306892 294.866745 
L 372.816913 206.682199 
L 374.326934 146.413651 
L 375.836956 226.260587 
L 377.346977 288.810031 
L 378.856998 289.018683 
L 380.367019 213.909962 
L 381.87704 219.24198 
L 383.387061 286.364196 
L 384.897082 247.768132 
L 386.407104 258.947528 
L 387.917125 292.923382 
L 389.427146 293.522545 
L 390.937167 259.389247 
L 392.447188 219.242677 
L 393.957209 248.73346 
L 395.46723 284.638903 
L 396.977252 255.318239 
L 398.487273 207.833969 
L 398.487273 207.833969 
" style="fill:none;stroke:#1f77b4;stroke-linecap:square;stroke-width:1.5;"/>
   </g>
   <g id="line2d_17">
    <path clip-path="url(#pe10c7807c4)" d="M 73.832727 295.486989 
L 75.342748 283.906191 
L 76.85277 275.711876 
L 78.362791 277.566579 
L 79.872812 273.464752 
L 81.382833 275.661394 
L 82.892854 263.956635 
L 84.402875 267.097546 
L 85.912896 268.663808 
L 87.422918 258.850911 
L 88.932939 258.430958 
L 90.44296 262.136448 
L 91.952981 265.460306 
L 93.463002 268.131411 
L 94.973023 266.630173 
L 96.483044 267.651465 
L 97.993066 269.972495 
L 99.503087 250.567412 
L 101.013108 254.943023 
L 102.523129 257.983498 
L 104.03315 260.489726 
L 105.543171 263.979925 
L 108.563214 269.83252 
L 111.583256 270.965533 
L 113.093277 269.736623 
L 114.603298 270.191029 
L 116.113319 270.27565 
L 117.62334 272.751237 
L 119.133362 274.971628 
L 120.643383 271.660739 
L 122.153404 273.291452 
L 123.663425 275.416897 
L 125.173446 256.231949 
L 126.683467 255.94561 
L 128.193488 245.90932 
L 129.70351 239.409917 
L 131.213531 243.580808 
L 132.723552 246.871176 
L 134.233573 245.78064 
L 135.743594 240.855423 
L 137.253615 245.675375 
L 138.763636 226.734105 
L 140.273658 227.127148 
L 141.783679 224.499414 
L 143.2937 224.700869 
L 144.803721 218.914454 
L 146.313742 208.076879 
L 147.823763 214.167258 
L 149.333784 212.083953 
L 150.843805 213.354087 
L 152.353827 221.243808 
L 153.863848 223.388996 
L 155.373869 218.725659 
L 156.88389 226.035507 
L 158.393911 229.948183 
L 159.903932 236.474876 
L 161.413953 236.009583 
L 162.923975 228.736999 
L 164.433996 234.826224 
L 167.454038 203.782955 
L 170.47408 218.152893 
L 171.984101 219.872341 
L 173.494123 217.414292 
L 176.514165 231.756412 
L 179.534207 242.019578 
L 181.044228 245.435781 
L 182.554249 230.217739 
L 184.064271 235.655166 
L 185.574292 236.576814 
L 187.084313 234.051347 
L 188.594334 220.874467 
L 190.104355 228.331748 
L 193.124397 238.75035 
L 194.634419 235.970826 
L 196.14444 241.509682 
L 197.654461 235.893869 
L 200.674503 237.974987 
L 202.184524 236.511828 
L 203.694545 225.698786 
L 205.204567 212.600434 
L 206.714588 207.167192 
L 208.224609 215.378783 
L 209.73463 220.752414 
L 211.244651 219.082459 
L 212.754672 212.611535 
L 214.264693 210.39571 
L 215.774715 218.901572 
L 218.794757 232.654192 
L 220.304778 233.688031 
L 221.814799 232.491586 
L 223.32482 237.253851 
L 224.834841 229.943872 
L 226.344863 236.321043 
L 227.854884 242.12511 
L 229.364905 243.80633 
L 230.874926 246.652394 
L 232.384947 248.001216 
L 233.894968 250.998592 
L 235.404989 242.531289 
L 238.425032 252.256482 
L 239.935053 252.667566 
L 241.445074 248.772265 
L 242.955095 235.091322 
L 244.465116 222.70331 
L 245.975137 229.915494 
L 247.485159 232.545013 
L 248.99518 232.066431 
L 252.015222 242.533016 
L 253.525243 244.606251 
L 255.035264 239.18376 
L 256.545285 235.592687 
L 258.055307 228.111138 
L 259.565328 219.500306 
L 261.075349 211.750558 
L 262.58537 197.209625 
L 264.095391 194.527238 
L 265.605412 197.027439 
L 267.115433 206.137828 
L 268.625455 200.175922 
L 270.135476 190.287973 
L 271.645497 200.807976 
L 273.155518 188.262721 
L 274.665539 198.087722 
L 276.17556 198.72942 
L 277.685581 208.226629 
L 279.195603 194.453216 
L 280.705624 201.96589 
L 282.215645 204.414903 
L 283.725666 211.402974 
L 285.235687 219.755799 
L 286.745708 212.770768 
L 288.255729 220.02961 
L 289.765751 225.852776 
L 292.785793 238.871454 
L 294.295814 240.687919 
L 295.805835 246.152086 
L 297.315856 247.600089 
L 298.825877 252.386594 
L 301.84592 260.470182 
L 303.355941 263.959237 
L 304.865962 267.087017 
L 306.375983 269.862544 
L 307.886004 270.42046 
L 309.396025 270.149156 
L 310.906047 272.026729 
L 312.416068 270.747029 
L 313.926089 273.02828 
L 315.43611 274.297001 
L 316.946131 268.556702 
L 318.456152 269.058968 
L 319.966173 252.379969 
L 321.476195 255.628532 
L 322.986216 247.104254 
L 324.496237 248.820201 
L 326.006258 243.190502 
L 327.516279 244.01912 
L 329.0263 239.083876 
L 330.536321 239.340863 
L 332.046342 242.95222 
L 333.556364 237.192153 
L 335.066385 242.983923 
L 336.576406 241.642051 
L 339.596448 250.911645 
L 342.61649 258.999661 
L 345.636533 265.631684 
L 347.146554 267.104154 
L 348.656575 269.923593 
L 350.166596 268.892271 
L 351.676617 247.359844 
L 353.186638 252.117933 
L 354.69666 255.611972 
L 356.206681 250.077655 
L 357.716702 238.665121 
L 359.226723 237.722569 
L 360.736744 230.212697 
L 362.246765 230.796773 
L 363.756786 233.756798 
L 365.266808 235.986554 
L 366.776829 236.417437 
L 368.28685 242.271992 
L 369.796871 246.666847 
L 371.306892 251.486837 
L 372.816913 247.006373 
L 374.326934 236.947101 
L 375.836956 235.878449 
L 377.346977 241.171607 
L 378.856998 245.956315 
L 380.367019 242.75168 
L 381.87704 240.40071 
L 383.387061 244.997058 
L 384.897082 245.274166 
L 386.407104 246.641502 
L 387.917125 251.26969 
L 389.427146 255.494975 
L 390.937167 255.884403 
L 392.447188 252.22023 
L 393.957209 251.871553 
L 395.46723 255.148288 
L 396.977252 255.165283 
L 398.487273 250.432152 
L 398.487273 250.432152 
" style="fill:none;stroke:#ff7f0e;stroke-linecap:square;stroke-width:1.5;"/>
   </g>
   <g id="patch_8">
    <path d="M 57.6 307.584 
L 57.6 41.472 
" style="fill:none;stroke:#000000;stroke-linecap:square;stroke-linejoin:miter;stroke-width:0.8;"/>
   </g>
   <g id="patch_9">
    <path d="M 414.72 307.584 
L 414.72 41.472 
" style="fill:none;stroke:#000000;stroke-linecap:square;stroke-linejoin:miter;stroke-width:0.8;"/>
   </g>
   <g id="patch_10">
    <path d="M 57.6 307.584 
L 414.72 307.584 
" style="fill:none;stroke:#000000;stroke-linecap:square;stroke-linejoin:miter;stroke-width:0.8;"/>
   </g>
   <g id="patch_11">
    <path d="M 57.6 41.472 
L 414.72 41.472 
" style="fill:none;stroke:#000000;stroke-linecap:square;stroke-linejoin:miter;stroke-width:0.8;"/>
   </g>
  </g>
 </g>
 <defs>
  <clipPath id="pe10c7807c4">
   <rect height="266.112" width="357.12" x="57.6" y="41.472"/>
  </clipPath>
 </defs>
</svg>
